<svg xmlns="http://www.w3.org/2000/svg" width="200" height="36.18" viewBox="0 0 200 36.18"><title>Untitled-2</title><path d="M58.06,43.52H53.14v-2.3h0c-.87,2-2.62,2.56-5.28,2.56-3.08,0-7.33-.16-7.33-6.36v-8.3h5v8.25c0,1.44,1,2.1,3.18,2.1h1.13c2.1,0,3.38-1.07,3.38-3.12V29.12h4.92Z" transform="translate(0 -7.9)" style="fill:#0a2240"/><path d="M62.67,33H60.21v-3.9h2.46V25.74h4.92v3.38h7.69V33H67.59v5.53c0,1.08.72,1.28,1.9,1.28,1.58,0,2-.41,2-1.74v-1h4.31v1.74c0,2.71-1.64,4.82-5.59,4.82H68.31c-3,0-5.64-1-5.64-5Z" transform="translate(0 -7.9)" style="fill:#0a2240"/><path d="M78.3,34.61c0-4.72,2.92-5.69,5.43-5.69h7.38c2.51,0,5.43,1,5.43,5.69v3.48c0,4.71-2.92,5.69-5.43,5.69H83.73c-2.51,0-5.43-1-5.43-5.69ZM83.22,37c0,2.05,1.13,2.67,3.38,2.67h1.18c3.18,0,3.79-.46,3.79-2.36v-2c0-1.89-.61-2.35-3.79-2.35H86.6c-2.25,0-3.38.61-3.38,2.66Z" transform="translate(0 -7.9)" style="fill:#0a2240"/><path d="M99.82,23.13H117c4.41,0,5.58,2.41,5.58,6v1.28c0,2.72-.56,4.36-3.17,5v.05c1.69.36,3.12,1.18,3.12,4.51v3.48h-5.69V41.06c0-2.15-.56-2.82-2.35-2.82h-9v5.28H99.82Zm5.74,10H115c1.54,0,2.1-.67,2.1-2.15V30.3c0-1.79-.82-2.15-2.61-2.15h-8.92Z" transform="translate(0 -7.9)" style="fill:#ce0e2d"/><path d="M125.65,35.53c0-5.43,2.46-6.61,6.09-6.61h3.44c5.22,0,7.43,1.23,7.43,6.2v2.46h-12v.87c0,1.54,1,1.95,3,1.95h1.54c2.66,0,2.82-.77,2.82-1.64h4.61v.61c0,3.59-2.92,4.41-6.51,4.41h-3.69c-3.28,0-6.71-.67-6.71-6.82Zm12.14-1.23c0-1.69-.72-2-3.59-2-3.22,0-3.58.31-3.58,2Z" transform="translate(0 -7.9)" style="fill:#ce0e2d"/><path d="M145.38,29.12h4.91v2.31h.06c.87-2,2.61-2.51,5.22-2.51,3.08,0,7.33.15,7.33,6.35v8.25H158V35.27c0-1.43-1-2.1-3.18-2.1h-1.12c-2.1,0-3.39,1.08-3.39,3.13v7.22h-4.91V29.12Z" transform="translate(0 -7.9)" style="fill:#ce0e2d"/><path d="M167.51,33h-2.46v-3.9h2.46V25.74h4.92v3.38h7.69V33h-7.69v5.53c0,1.08.72,1.28,1.9,1.28,1.59,0,2-.41,2-1.74v-1h4.3v1.74c0,2.71-1.64,4.82-5.58,4.82h-1.9c-3,0-5.64-1-5.64-5Z" transform="translate(0 -7.9)" style="fill:#ce0e2d"/><path d="M182.68,38.45c0-3.9,2.46-4.15,7.28-4.15,2.71,0,4.2.1,5.12,1.18V34.2c0-1.44-.41-1.9-2.31-1.9h-2.92c-1.43,0-1.84.15-1.89,1.18h-4.77c0-3.9,1.74-4.56,5.9-4.56h5.73c3.39,0,5.18,1.79,5.18,5.17v9.43h-4.66V41.88c-1.39,1.54-1.9,1.85-4.36,1.85H187.6c-3,.05-4.92-.72-4.92-4.1Zm8.81,1.89c3.39,0,3.69-.56,3.69-1.53s-.25-1.49-3-1.49H190c-2.1,0-2.51.51-2.51,1.69,0,.92.66,1.28,2.61,1.28Z" transform="translate(0 -7.9)" style="fill:#ce0e2d"/><polygon points="23.98 8.26 13.84 8.26 0 36.18 8.76 36.18 18.91 14.77 29.31 36.18 38.02 36.18 23.98 8.26" style="fill:#0a2240"/><path d="M16.81,9.55C5.48,13.19-1.84,21.85.41,28.87S13.68,38.65,25,35,43.66,22.72,41.4,15.65,28.13,5.86,16.81,9.55Zm8.81,24.59c-9,2.93-18.09-.15-20.24-6.91S8.76,12.67,17.73,9.8,35.82,10,38,16.67,34.59,31.22,25.62,34.14Z" transform="translate(0 -7.9)" style="fill:#ce0e2d"/><polygon points="23.98 8.26 13.84 8.26 18.91 14.77 29.31 36.18 38.02 36.18 23.98 8.26" style="fill:#0a2240"/></svg>