<?xml version="1.0" encoding="utf-8"?>
<!-- Generator: Adobe Illustrator 28.1.0, SVG Export Plug-In . SVG Version: 6.00 Build 0)  -->
<svg version="1.1" id="Capa_1" xmlns="http://www.w3.org/2000/svg" xmlns:xlink="http://www.w3.org/1999/xlink" x="0px" y="0px"
	 viewBox="0 0 1008 409.1" style="enable-background:new 0 0 1008 409.1;" xml:space="preserve">
<style type="text/css">
	.st0{fill:#001F60;}
</style>
<g>
	<g>
		<g>
			<g>
				<g>
					<g>
						<g>
							<path class="st0" d="M192.9,251.6c-5.2,5.2-9.2,11.6-12.1,18.5h-80v-9.2c0-16.6,6.4-32,18.2-43.8l24.6-24.6v26l-11.6,11.6
								c-5.9,5.9-9.9,13.5-11.8,21.5L192.9,251.6L192.9,251.6z"/>
						</g>
					</g>
					<g>
						<g>
							<path class="st0" d="M309.9,292.6c0,20.4-8,39.8-23,54.2c-0.2,0-0.2,0.2-0.5,0.5c-14.4,14-33.1,21.8-53,21.8
								c-0.5,0-0.7,0-1.2,0c-1.7,0-3.3,0-5-0.2l0,0c-18.2-1.4-35.3-9.2-48.3-22.5c-14.2-14.4-22-33.4-22-53.5h18.5
								c0,31.5,25.6,57.5,57.1,58c0.2,0,0.5,0,0.7,0c0.2,0,0.7,0,0.9,0s0.2,0,0.5,0c14.7-0.5,28.4-6.2,39.1-16.8
								c11.1-11.1,17.3-25.6,17.3-41.2c0-0.5,0-0.9,0-1.2c-0.5-19.9-11.1-37.6-26.5-48.1c-1.7-1.2-3.6-2.1-5.2-3.1
								c-3.6-1.9-7.3-3.3-11.1-4.5c0,0,0,0-0.2,0c-4.3-1.2-9-1.9-13.7-1.9h-79.5V118.8h42.1c-1.9,4.5-4.5,8.5-7.8,11.8l-6.6,6.6
								h-9.2v25.6l11.6-11.6L197,139c0.5-0.5,0.9-0.9,1.4-1.7c4.7-5.2,8.3-11.6,10.4-18.5c0-0.2,0.2-0.7,0.2-1.2
								c0.9-3.6,1.4-7.1,1.7-10.4c0.5-13.3-4.7-26-14.4-35.5c-18.5-17.8-48.3-17-66,1.4c-8.5,8.8-13,20.4-13,32.4h-18
								c0-17,6.4-33.1,18.2-45.2c24.9-25.8,66-26.5,92.1-1.9c13.5,12.8,20.6,30.5,20.1,48.8c0,3.8-0.5,7.8-1.4,11.6h65.1v18.5h-72
								c-2.4,4-5,8-8,11.6c-0.9,0.9-1.9,2.1-2.8,3.1l-36.9,36.9v27h61.1c19.6,0,38.4,8,52.6,22.7c14.2,14.4,22,33.1,22.5,52.8
								C309.9,291.4,309.9,291.9,309.9,292.6z"/>
						</g>
					</g>
				</g>
			</g>
			<g>
				<g>
					<g>
						<path class="st0" d="M263.2,291.4c0,4-3.3,7.3-7.3,7.3c-4,0-7.3-3.3-7.3-7.1c0-4,3.1-7.3,7.3-7.3S263.2,287.6,263.2,291.4z"/>
					</g>
				</g>
				<g>
					<g>
						<path class="st0" d="M247.1,307.7c0,4-3.3,7.3-7.3,7.3c-4,0-7.3-3.1-7.3-7.1s3.3-7.3,7.3-7.3
							C243.8,300.6,247.1,303.7,247.1,307.7z"/>
					</g>
				</g>
				<g>
					<g>
						<path class="st0" d="M231.8,323.1c0,4-3.3,7.3-7.3,7.3c-4,0-7.3-3.3-7.3-7.3c0-4,3.3-7.3,7.1-7.3
							C228.4,315.8,231.8,319.1,231.8,323.1z"/>
					</g>
				</g>
				<g>
					<g>
						<path class="st0" d="M232,259.9c0,4-3.3,7.1-7.3,7.1s-7.3-3.3-7.3-7.3c0-4,3.3-7.3,7.3-7.1C228.7,252.6,232,255.9,232,259.9z"
							/>
					</g>
				</g>
				<g>
					<g>
						<path class="st0" d="M246.9,275.3c0,4-3.3,7.3-7.3,7.3c-4,0-7.3-3.3-7.3-7.3s3.3-7.1,7.3-7.1
							C243.8,268,247.1,271.3,246.9,275.3z"/>
					</g>
				</g>
			</g>
			<g>
				<path class="st0" d="M385.2,275.8c-28.4,72-98.7,123.1-180.6,123.1c-107,0-194.4-87.1-194.4-194.4S97.3,10.2,204.5,10.2
					c58,0,110.1,25.6,145.6,65.8V61.1C313,23.4,261.4,0,204.5,0C91.9,0,0,91.6,0,204.5c0,112.7,91.6,204.5,204.5,204.5
					c83.6,0,155.5-50.4,187.3-122.4V276L385.2,275.8L385.2,275.8z"/>
			</g>
		</g>
	</g>
	<g>
		<path class="st0" d="M514.9,109.6v92.6h32.9V41.4h-28.4c-1.2,0-2.4,0-3.3,0h-0.9h-5.4l-2.6,5.4l0,0l-41.2,81.4
			c-1.4,2.8-2.8,5.9-4.3,9c-1.4,3.1-2.8,6.2-4,9.5c-1.2-3.1-2.6-6.2-4-9.2c-1.4-3.1-2.8-5.9-4.3-8.8l-41-80.7l-3.3-6.6h-5.4h-0.9
			c-0.9,0-2.1,0-3.3,0H392h-25.1v160.7h32.9v-92.6c0-2.1,0-4.5-0.2-7.1c-0.2-2.6-0.5-5-0.7-7.6l42.8,82.9c1.4,2.6,3.1,4.5,5.4,5.9
			c2.1,1.4,4.7,1.9,7.6,1.9h5.2c2.8,0,5.4-0.7,7.6-1.9c2.1-1.4,4-3.3,5.4-5.9l42.6-82.6C515.1,100.4,514.9,105.1,514.9,109.6z"/>
		<polygon class="st0" points="678,173.5 611.9,173.5 611.9,135.2 662.6,135.2 662.6,107.7 611.9,107.7 611.9,70.1 678,70.1 
			678,41.4 574.3,41.4 574.3,202.2 678,202.2 		"/>
		<path class="st0" d="M882.3,202.2l3.1-10.7l8.5-25.6H955l8.5,25.6l3.1,10.7h9.9l0,0h0.2h28.9l-62.3-161h-38.1l-62.3,161h29.1
			H882.3z M917.6,96.8c1.2-2.8,2.4-6.2,3.6-9.9c1.2-3.8,2.4-8,3.6-12.5c1.2,4.5,2.6,8.5,3.8,12.3c1.2,3.8,2.4,7.1,3.3,9.9l14.7,44
			h-44L917.6,96.8z"/>
		<path class="st0" d="M368.6,242.6c-1.9,0-3.3,1.4-3.3,3.3v11.1v1.7h1.7h41.7V365c0,1.9,1.7,3.6,3.6,3.6h11.4h1.7v-1.7V258.7h40
			c1.7,0,3.1-1.4,3.1-3.1v-11.4v-1.7h-1.7L368.6,242.6L368.6,242.6z"/>
		<path class="st0" d="M548.5,317.2l0.2-0.5c0.7-0.2,1.7-0.5,2.6-0.7c1.9-0.7,4.5-1.9,7.6-3.6c3.1-1.9,5.7-4,8-6.6
			c2.1-2.6,4.3-6.2,5.9-10.7c1.7-4.5,2.6-9.5,2.6-14.9c0-12.1-3.8-21.5-11.4-27.9c-7.6-6.4-18.2-9.5-32-9.5h-45h-1.7v1.7v122.6v1.7
			h1.7h13.3h1.7v-1.7v-47.8h28.6l31.5,48.8l0.5,0.7h0.9h15.6h3.1l-1.7-2.6L548.5,317.2z M531.5,303.5h-29.4v-44.7h29.4
			c5.9,0,10.9,0.7,14.7,2.1c3.8,1.2,6.4,3.1,8,5.2c1.7,2.4,2.8,4.7,3.6,6.9c0.7,2.4,0.9,5,0.9,8.3c0,3.1-0.2,5.9-0.9,8.3
			c-0.5,2.1-1.9,4.5-3.6,6.9c-1.7,2.1-4.3,4-8,5.2C542.4,302.8,537.4,303.5,531.5,303.5z"/>
		<path class="st0" d="M658.3,243.8l-0.5-1.2h-1.2h-13h-1.2l-0.5,1.2l-49,122.6l-0.9,2.4h2.6h14.4h1.2l0.5-1.2l14.4-37.4h50.4
			l14.4,37.4l0.5,1.2h1.2h14.2h2.6l-0.9-2.4L658.3,243.8z M631.1,314.6l19.2-49.7l18.9,49.7H631.1z"/>
		<polygon class="st0" points="793.5,242.6 792.3,242.6 792.1,243.8 754.2,343.3 716.3,243.8 715.9,242.6 714.7,242.6 700.5,242.6 
			698.1,242.6 699.1,245 745.9,367.6 746.4,368.8 747.6,368.8 760.6,368.8 761.8,368.8 762.3,367.6 809.4,245 810.3,242.6 
			807.7,242.6 		"/>
		<polygon class="st0" points="827.4,242.6 825.7,242.6 825.7,244.5 825.7,367.2 825.7,368.8 827.4,368.8 904.8,368.8 906.4,368.8 
			906.4,367.2 906.4,354.6 906.4,353 904.8,353 842.3,353 842.3,313.9 891.5,313.9 893.2,313.9 893.4,312 893.4,299.2 893.4,297.6 
			891.8,297.6 842.3,297.6 842.3,258.7 904.8,258.7 906.4,258.7 906.4,256.9 906.4,244.5 906.4,242.6 904.8,242.6 		"/>
		<polygon class="st0" points="945.3,352.5 945.3,244.5 945.3,242.6 943.6,242.6 930.1,242.6 928.5,242.6 928.5,244.5 928.5,367.2 
			928.5,368.8 930.1,368.8 1006.1,368.8 1008,368.8 1008,367.2 1008,354.4 1008,352.5 1006.1,352.5 		"/>
		<path class="st0" d="M728.7,191.8c12.5,7.3,26.8,11.1,43.1,11.1c12.5,0,24.1-2.1,35-6.2c10.9-4,19.6-9.9,26.8-17.3v-67h-64.4v27.7
			h32.7v22.7c-8.8,4.7-18.7,7.1-29.6,7.1c-9.2,0-17.8-2.1-25.1-6.6c-7.3-4.3-13-10.2-17-17.5c-4-7.3-5.9-15.4-5.9-24.4
			c0-8.8,1.9-16.8,5.9-24.1c4-7.3,9.7-13.3,16.8-17.8c7.3-4.5,15.6-6.6,24.9-6.6c7.3,0,14,1.2,19.9,3.8c5.9,2.6,11.4,6.2,15.6,10.7
			l23-23.7c-7.3-7.6-15.9-13.3-25.8-17.3c-9.9-4-20.8-6.2-32.7-6.2c-16.3,0-30.5,3.8-43.1,11.1S706.6,68.7,700,81
			c-6.6,12.3-9.9,26-9.9,40.5c0,14.7,3.3,28.2,9.9,40.5C706.6,174.5,716.1,184.4,728.7,191.8z"/>
	</g>
</g>
</svg>
