<?xml version="1.0" encoding="utf-8"?>
<!-- Generator: Adobe Illustrator 26.1.0, SVG Export Plug-In . SVG Version: 6.00 Build 0)  -->
<svg version="1.1" xmlns="http://www.w3.org/2000/svg" xmlns:xlink="http://www.w3.org/1999/xlink" x="0px" y="0px"
	 viewBox="0 0 425.2 425.2" style="enable-background:new 0 0 425.2 425.2;" xml:space="preserve">
<style type="text/css">
	.st0{fill:#FFFFFF;}
	.st1{opacity:0.72;}
	.st2{fill-rule:evenodd;clip-rule:evenodd;fill:#4D8C9B;}
	.st3{fill:#009C94;}
	.st4{fill:#E35326;}
</style>
<g id="Capa_1">
</g>
<g id="Capa_2">
	<g>
		<g>
			<path class="st3" d="M66.4,286.5c18.7,0,33.9,15.2,33.9,33.9s-15.2,33.9-33.9,33.9s-33.9-15.2-33.9-33.9S47.7,286.5,66.4,286.5
				 M66.4,274.5c-25.4,0-45.9,20.6-45.9,45.9s20.6,45.9,45.9,45.9s45.9-20.6,45.9-45.9S91.7,274.5,66.4,274.5L66.4,274.5z"/>
			<g>
				<path class="st3" d="M159.9,192.3C212,157,197.3,59.7,116.4,59.4c-10.2,0-20.4,0-30.7,0l23.4,47c2.4,0,4.9,0,7.3,0.1
					c30,0.3,28.5,51.5,0,51.5H78.8L26.1,76c0,72.1,0,189.2,0,189.2c47.2,0,52.7-60.9,52.7-60.9h0l27.3,0.3l35.3,60.6h58.8
					L159.9,192.3z"/>
			</g>
			<path class="st3" d="M118.7,274.4l52.4,57.6v-57.4h13.1v71.7l0.3,0.3h-0.3v19.6l-0.9-1.4l-51.4-56.5v57.9h-13.1V274.4z"/>
			<path class="st3" d="M318.2,107.8c-0.7-1.9-0.7-4,0-6.1c1.6-4.9,6.9-7.5,11.8-5.8c3.1,1,14.8,6.3,28.2,16.5
				c17.3,13.2,30.5,29.6,38.2,47.5c13.2,30.6,10.9,65.3-6.6,103.2c-2.2,4.7-7.7,6.7-12.4,4.5c-4.7-2.2-6.7-7.7-4.5-12.4
				c15.1-32.6,17.3-62,6.6-87.4c-8-18.9-21.9-32.4-32.1-40.3c-11.4-8.8-21.5-13.4-23.4-14.1C321.1,112.5,319.1,110.4,318.2,107.8z
				 M308.7,141.4c3,1.2,29.8,12.5,40.4,38.6c7.2,17.8,5.4,38.9-5.4,62.8c-2.1,4.7,0,10.2,4.7,12.3c4.7,2.1,10.2,0,12.3-4.7
				c12.9-28.7,14.9-54.7,5.7-77.4c-13.2-32.6-44.6-46.5-50.8-48.9c-4.8-1.9-10.2,0.4-12.1,5.2c-0.9,2.2-0.9,4.5-0.1,6.5
				C304.2,138.3,306.1,140.3,308.7,141.4z M293.6,170.1c3.4,0.7,17.5,7.3,23.8,20.4c5.3,11.1,3.9,24.6-4.2,40.1
				c-2.4,4.6-0.6,10.2,4,12.6c4.6,2.4,10.2,0.6,12.6-4c13.6-26.1,9.9-45.3,4.5-56.7c-9.2-19.4-28.8-29-36.9-30.6
				c-5-1-9.9,2.2-11,7.3c-0.3,1.7-0.2,3.4,0.3,4.9C287.7,167.1,290.3,169.5,293.6,170.1z M301.7,200.6c-3.3-9.3-13.5-14.2-22.8-10.9
				c-9.3,3.3-14.2,13.5-10.9,22.8c3.3,9.3,13.5,14.2,22.8,10.9C300.1,220.1,305,209.9,301.7,200.6z"/>
		</g>
		<g>
			<g>
				<path class="st4" d="M200.2,265.2L327.4,64.7c0,0-37.9-31.8-94.4,53.5c-9.1,13.8-64.1,90.4-64.1,90.4L200.2,265.2z"/>
			</g>
			<path class="st4" d="M78.8,158.3L26.1,69.8V59.4h55.7l51.7,90.4c0,0-5.6,8.5-17.2,8.5H78.8z"/>
			<path class="st4" d="M190.7,366.2v-91.6h13.1v78.5h32.7v13.1H190.7z"/>
			<path class="st4" d="M256.2,274.6v91.6h-13.1v-91.6H256.2z"/>
			<path class="st4" d="M262.7,274.4l52.4,57.6v-57.4h13.1v71.7l0.3,0.3h-0.3v19.6l-0.9-1.4l-51.4-56.5v57.9h-13.1V274.4z"/>
			<path class="st4" d="M393.6,287.7h-45.8v19.6h45.8v13.1h-45.8v32.7h45.8v13.1h-58.9v-91.6h58.9V287.7z"/>
		</g>
		<path class="st2" d="M66.2,290.9c-16.6,0-30,13.5-30,30c0,16.6,13.4,30,30,30c16.6,0,30-13.4,30-30
			C96.2,304.3,82.8,290.9,66.2,290.9z M90.9,311.8l-1.5,0.1v0.9H89l-0.5-0.4l-2.6-0.6v-1.7l-3.3,0.3l-1,0.5h-1.3l-0.6-0.1l-1.6,0.9
			v1.7l-3.2,2.3l0.3,1h0.7l-0.2,1l-0.5,0.2l0,2.5l2.8,3.2h1.2l0.1-0.2h2.2l0.6-0.6h1.2l0.7,0.7l1.8,0.2l-0.2,2.5l2.1,3.6l-1.1,2.1
			l0.1,1l0.8,0.8v2.4l1.1,1.5v1.5c-5.3,6.5-13.3,10.7-22.3,10.7c-14.8,0-27-11.3-28.5-25.7c0-0.2,0-0.5,0-0.7v0
			c-0.1-0.7-0.1-1.5-0.1-2.2v-0.5l0-0.4l0-0.4v-0.2c0-0.2,0-0.4,0-0.5l0-0.1c0.2-3.2,1-6.2,2.2-9.1v1.6l1.2,0.6v2.3l1.2,2l0.9,0.1
			l0.1-0.7l-1.1-1.7l-0.2-1.7h0.7l0.3,1.7l1.6,2.4l-0.4,0.8l1,1.6l2.6,0.7v-0.4l1,0.2l-0.1,0.7l0.8,0.1l1.2,0.4l1.8,2l2.2,0.2
			l0.2,1.8l-1.5,1.1l-0.1,1.6l-0.2,1l2.2,2.8l0.2,1c0,0,0.8,0.2,0.9,0.2c0.1,0,1.8,1.3,1.8,1.3v5l0.6,0.2l-0.4,2.3l1,1.4l-0.2,2.3
			l1.4,2.4l1.7,1.5l1.7,0l0.2-0.6l-1.3-1.1l0.1-0.5l0.2-0.7l0.1-0.7l-0.9,0l-0.4-0.5l0.7-0.7l0.1-0.5l-0.8-0.2l0-0.5l1.2-0.2
			l1.7-0.8l0.6-1.1l1.8-2.3l-0.4-1.8l0.6-1l1.7,0l1.1-0.9l0.4-3.5l1.2-1.6l0.2-1l-1.1-0.4l-0.8-1.2l-2.6,0l-2-0.8l-0.1-1.5l-0.7-1.2
			l-1.8,0l-1.1-1.7l-1-0.5l-0.1,0.5l-1.7,0.1l-0.6-0.9l-1.8-0.4l-1.5,1.7l-2.3-0.4l-0.2-2.6l-1.7-0.3l0.7-1.3l-0.2-0.8l-2.2,1.5
			l-1.4-0.2l-0.5-1.1l0.3-1.1l0.8-1.4l1.8-0.9h3.4v1l1.2,0.6l-0.1-1.8l0.9-0.9l1.8-1.2l0.1-0.8l1.8-1.9l1.9-1.1l-0.2-0.1l1.3-1.2
			l0.5,0.1l0.2,0.3l0.5-0.5l0.1-0.1l-0.5-0.1l-0.6-0.2v-0.5l0.3-0.2l0.6,0l0.3,0.1l0.3,0.5l0.3,0v0l0.1,0l0.9-0.1l0.1-0.5l0.5,0.1
			v0.5l-0.5,0.3l0.1,0.5l1.6,0.5c0,0,0,0,0,0l0.4,0l0-0.7l-1.3-0.6l-0.1-0.3l1.1-0.3l0.1-1l-1.1-0.7l-0.1-1.7l-1.5,0.7h-0.6l0.1-1.3
			l-2.1-0.5l-0.8,0.6v2l-1.5,0.5l-0.6,1.3l-0.7,0.1v-1.7l-1.4-0.2l-0.7-0.5l-0.3-1.1l2.6-1.5l1.3-0.4L60,300l0.7,0l0.1-0.4l0.8-0.1
			l0-0.2l-0.3-0.1l-0.1-0.5l0.9-0.1l0.5-0.6l0,0h0l0.2-0.2l1.9-0.2l0.8,0.7l-2.2,1.2l2.8,0.7l0.4-0.9h1.2l0.5-0.8l-0.9-0.2v-1
			l-2.7-1.2l-1.9,0.2l-1.1,0.6l0.1,1.4l-1.1-0.2l-0.2-0.8l1.1-1l-2-0.1l-0.6,0.2l-0.2,0.7l0.7,0.1l-0.2,0.7l-1.2,0.1l-0.2,0.5
			l-1.8,0c0,0,0-1-0.1-1l1.4,0l1.1-1l-0.6-0.3l-0.8,0.8l-1.3-0.1l-0.8-1.1h-1.7l-1.7,1.3h1.6l0.1,0.5l-0.4,0.4l1.7,0l0.3,0.6l-2-0.1
			l-0.1-0.5l-1.2-0.3l-0.7-0.4H50c4.6-3.1,10.2-5,16.2-5c7.4,0,14.2,2.8,19.3,7.5l-1.1,0.4l-0.6,0.6l0.1,0.7l0.7,0.1l0.4,1.1
			l1.2-0.5l0.2,1.4h-0.3l-1-0.1l-1.1,0.2L83,305l-1.5,0.2l-0.2,1.3l0.6,0.2l-0.2,0.8l-1.5-0.3l-1.4,0.3l-0.3,0.8l0.2,1.6l0.8,0.4
			l1.4,0l0.9-0.1l0.3-0.7l1.4-1.9l0.9,0.2l0.9-0.8l0.2,0.7l2.3,1.5l-0.3,0.4l-1-0.1l0.4,0.6l0.6,0.1l0.8-0.3l0-0.9l0.3-0.1l-0.3-0.3
			l-1.5-0.8l-0.4-1.1h1.3l0.4,0.4l1.1,0.9l0.1,1.1l1.1,1.2l0.4-1.7l0.8-0.4l0.1,1.4l0.8,0.8h0.3c0.3,0.8,0.6,1.6,0.8,2.4h-1.3
			L90.9,311.8z"/>
	</g>
</g>
</svg>
