<svg version="1.1" xmlns:svg="http://www.w3.org/2000/svg" xmlns="http://www.w3.org/2000/svg" xmlns:xlink="http://www.w3.org/1999/xlink" x="0px" y="0px" width="663.007px"
	 height="153.511px" viewBox="0 0 663.007 153.511" enable-background="new 0 0 663.007 153.511" xml:space="preserve">
<g id="g2124" transform="translate(-6.8647852,-39.403083)">
	<g id="g1525">
		<path id="path1499" fill="#0BB9E4" d="M189.872,107.522h0.148c0.891-2.97,2.423-7.767,4.601-14.396
			c2.176-6.629,4.798-14.396,7.866-23.301c0.098-0.494,0.371-0.692,0.816-0.594h10.983c0.494-0.049,0.643,0.198,0.445,0.742
			l-18.7,48.013c-0.198,0.396-0.519,0.566-0.965,0.519h-11.428c-0.396,0.049-0.693-0.123-0.89-0.519l-19.443-48.012
			c-0.248-0.494-0.074-0.742,0.519-0.742h11.354c0.445-0.049,0.716,0.1,0.816,0.445c3.562,9.252,6.53,17.142,8.905,23.672
			c2.423,6.53,4.032,11.255,4.824,14.174v-0.074L189.872,107.522z"/>
		<path id="path1501" fill="#0BB9E4" d="M236.162,80.806c6.827,0.149,11.972,2.004,15.435,5.566
			c3.462,3.562,5.195,7.94,5.195,13.135c-0.1,6.036-2.029,10.786-5.788,14.248c-3.76,3.464-8.806,5.244-15.138,5.343
			c-7.421-0.197-12.789-2.227-16.103-6.085c-3.365-3.858-5.022-8.261-4.972-13.209c0.098-5.54,2.028-10.042,5.788-13.506
			c3.759-3.462,8.954-5.243,15.583-5.343V80.806L236.162,80.806z M235.569,89.117c-5.492,0.149-8.435,3.588-8.831,10.315
			c0.197,6.827,3.314,10.414,9.35,10.759c2.473,0,4.551-0.84,6.233-2.522c1.632-1.681,2.497-4.304,2.597-7.866
			c0-3.166-0.742-5.738-2.227-7.717c-1.484-1.93-3.81-2.918-6.975-2.969v-0.074L235.569,89.117z"/>
		<path id="path1503" fill="#0BB9E4" d="M261.229,109.449V65.817c0-0.446,0.297-0.668,0.891-0.668h10.389
			c0.494-0.049,0.742,0.174,0.742,0.668v42.224c0.049,1.881,0.865,2.746,2.449,2.597c0.494,0,1.088-0.049,1.781-0.147
			c0.297-0.049,0.445,0.1,0.445,0.445v6.752c0.049,0.594-0.148,0.842-0.593,0.742c-1.089,0.494-3.018,0.768-5.789,0.816
			c-3.068,0.049-5.517-0.645-7.346-2.079c-1.781-1.435-2.697-3.981-2.746-7.644v-0.074H261.229L261.229,109.449z"/>
		<path id="path1505" fill="#0BB9E4" d="M316.054,115.684c-6.187,2.326-12.049,3.438-17.589,3.34
			c-4.896,0.049-9.079-0.916-12.541-2.895c-3.513-1.979-5.343-5.145-5.491-9.498c0-4.254,2.078-7.321,6.233-9.202
			c4.155-1.879,10.116-3.017,17.883-3.413v-0.297c0.1-0.692-0.321-1.533-1.262-2.523c-0.99-0.989-3.117-1.533-6.382-1.632
			c-4.155,0.1-8.014,0.842-11.576,2.226c-0.396,0.148-0.619,0-0.668-0.445v-7.124c-0.05-0.395,0.123-0.642,0.519-0.742
			c4.353-1.781,9.003-2.696,13.951-2.746c5.738,0.1,9.992,1.51,12.766,4.23c2.77,2.771,4.154,6.333,4.154,10.686v14.248
			c0,1.881,0.122,3.711,0.37,5.491c0.051,0.149-0.024,0.248-0.223,0.298v-0.074L316.054,115.684z M292.159,106.334
			c-0.148,2.375,2.497,3.662,7.94,3.859c1.583,0,3.065-0.148,4.45-0.445v-7.866c-4.649,0.248-7.916,0.718-9.795,1.41
			c-1.881,0.693-2.771,1.683-2.672,2.969L292.159,106.334z"/>
		<path id="path1507" fill="#0BB9E4" d="M322.792,117.762V90.231c0-1.385-0.05-2.869-0.146-4.452
			c-0.052-1.583-0.124-2.82-0.225-3.711c-0.1-0.395,0.101-0.593,0.595-0.593h9.054c0.689,0,1.086,0.198,1.186,0.593
			c0.297,0.693,0.521,1.633,0.668,2.82c3.564-2.572,7.57-3.908,12.023-4.007c3.609-0.098,6.801,0.99,9.572,3.265
			c2.77,2.276,4.229,6.432,4.379,12.467v21.372c0,0.445-0.273,0.668-0.816,0.668h-10.389c-0.594,0-0.893-0.223-0.893-0.668V97.059
			c0.1-4.551-1.979-6.851-6.232-6.901c-2.623,0.1-4.947,0.99-6.977,2.672v25.23c0,0.396-0.248,0.592-0.74,0.592h-10.464
			c-0.493,0-0.74-0.246-0.74-0.741v-0.074L322.792,117.762z"/>
		<path id="path1509" fill="#0BB9E4" d="M385.927,119.098c-6.334,0-11.479-1.533-15.436-4.602c-3.959-3.117-5.986-7.84-6.084-14.174
			c0.098-5.343,2.225-9.894,6.381-13.654c4.156-3.759,9.969-5.714,17.439-5.862c1.482,0,2.672,0.1,3.563,0.297V65.594
			c0.049-0.395,0.246-0.594,0.594-0.594h10.982c0.395,0,0.568,0.148,0.52,0.445v43.336c0,2.078,0.1,3.984,0.299,5.715
			c0.098,0.347-0.074,0.619-0.521,0.816c-5.838,2.473-11.725,3.758-17.66,3.857L385.927,119.098z M391.714,109.449V90.23
			c-0.988-0.297-2.299-0.445-3.932-0.445c-3.217,0-5.863,0.842-7.941,2.523c-2.076,1.683-3.166,4.23-3.264,7.643
			c0.098,3.513,1.137,6.061,3.117,7.643c1.977,1.584,4.477,2.375,7.494,2.375c1.682,0,3.166-0.173,4.453-0.52v-0.073
			L391.714,109.449z"/>
		<path id="path1511" fill="#0BB9E4" d="M429.546,80.806c6.826,0.149,11.973,2.004,15.436,5.566s5.193,7.94,5.193,13.135
			c-0.1,6.036-2.027,10.786-5.789,14.248c-3.76,3.464-8.805,5.244-15.137,5.343c-7.422-0.197-12.789-2.227-16.104-6.085
			c-3.365-3.858-5.021-8.261-4.973-13.209c0.1-5.54,2.027-10.042,5.787-13.506c3.762-3.462,8.955-5.243,15.584-5.343L429.546,80.806
			L429.546,80.806z M428.952,89.117c-5.492,0.149-8.434,3.588-8.83,10.315c0.197,6.827,3.314,10.414,9.352,10.759
			c2.473,0,4.551-0.84,6.23-2.522c1.633-1.681,2.498-4.304,2.598-7.866c0-3.166-0.74-5.738-2.227-7.717
			c-1.484-1.93-3.811-2.918-6.975-2.969v-0.074L428.952,89.117z"/>
		<path id="path1513" fill="#5BBFCB" d="M494.3,107.522h0.148c0.891-2.97,2.422-7.767,4.6-14.396
			c2.178-6.629,4.801-14.396,7.867-23.301c0.1-0.494,0.371-0.692,0.816-0.594h10.98c0.494-0.049,0.645,0.198,0.445,0.742
			l-18.699,48.013c-0.199,0.396-0.52,0.566-0.965,0.519h-11.428c-0.396,0.049-0.693-0.123-0.893-0.519l-19.439-48.013
			c-0.248-0.494-0.074-0.742,0.518-0.742h11.355c0.443-0.049,0.715,0.1,0.814,0.445c3.563,9.252,6.529,17.142,8.904,23.672
			c2.424,6.53,4.033,11.255,4.824,14.174v-0.074L494.3,107.522z"/>
		<path id="path1515" fill="#5BBFCB" d="M526.937,77.541c-4.059-0.098-6.209-1.904-6.457-5.417c0.297-3.462,2.521-5.269,6.678-5.417
			c4.057,0.149,6.184,1.955,6.383,5.417c-0.199,3.513-2.375,5.318-6.531,5.417v-0.074L526.937,77.541z M521.148,81.994
			c0-0.395,0.248-0.594,0.742-0.594h10.537c0.594-0.098,0.865,0.1,0.816,0.594v35.843c0.049,0.444-0.223,0.668-0.816,0.668h-10.389
			c-0.594,0.049-0.891-0.174-0.891-0.668V81.994L521.148,81.994z"/>
		<path id="path1517" fill="#5BBFCB" d="M574.784,115.684c-6.184,2.326-12.047,3.438-17.586,3.34
			c-4.898,0.049-9.08-0.916-12.541-2.895c-3.514-1.979-5.344-5.145-5.492-9.498c0-4.254,2.078-7.321,6.234-9.202
			c4.154-1.879,10.115-3.017,17.883-3.413v-0.297c0.1-0.692-0.322-1.533-1.262-2.523c-0.99-0.989-3.117-1.533-6.383-1.632
			c-4.154,0.1-8.014,0.842-11.574,2.226c-0.396,0.148-0.619,0-0.668-0.445v-7.124c-0.053-0.395,0.121-0.642,0.518-0.742
			c4.354-1.781,9.004-2.696,13.951-2.746c5.738,0.1,9.992,1.51,12.764,4.23c2.771,2.771,4.154,6.333,4.154,10.686v14.248
			c0,1.881,0.123,3.711,0.371,5.491c0.049,0.149-0.025,0.248-0.225,0.298v-0.074L574.784,115.684z M550.89,106.334
			c-0.148,2.375,2.496,3.662,7.939,3.859c1.582,0,3.066-0.148,4.451-0.445v-7.866c-4.65,0.248-7.916,0.718-9.795,1.41
			c-1.881,0.693-2.771,1.683-2.672,2.969L550.89,106.334z"/>
		<path id="path1519" fill="#5BBFCB" d="M581.523,81.994c0-0.494,0.248-0.717,0.742-0.668h10.463c0.494-0.098,0.766,0.1,0.814,0.594
			v31.167c0,5.343-0.297,9.326-0.891,11.946c-0.645,2.673-1.658,4.775-3.043,6.31c-3.266,2.968-6.926,4.304-10.982,4.007
			c-1.287,0-2.623-0.101-4.006-0.298c-0.545-0.101-0.791-0.37-0.742-0.815v-7.42c0-0.396,0.248-0.594,0.742-0.594
			c2.67,0.098,4.5-0.349,5.49-1.337c0.99-0.989,1.459-2.819,1.41-5.491L581.523,81.994L581.523,81.994z M587.608,77.541
			c-4.059-0.098-6.209-1.904-6.457-5.417c0.248-3.462,2.449-5.269,6.604-5.417c4.059,0.149,6.186,1.955,6.385,5.417
			C593.94,75.637,591.765,77.443,587.608,77.541v-0.074V77.541z"/>
		<path id="path1521" fill="#5BBFCB" d="M620.394,80.806c6.279,0.198,10.834,1.93,13.652,5.195c2.771,3.265,4.129,6.778,4.08,10.537
			c-0.1,3.662-0.395,5.665-0.889,6.011c-0.893,0.396-3.76,0.594-8.609,0.594h-16.621c0.148,1.881,1.162,3.464,3.043,4.75
			c1.881,1.336,4.85,2.028,8.904,2.077c3.268,0.101,6.73-0.444,10.391-1.633c0.346-0.099,0.52,0.05,0.52,0.446v7.494
			c0,0.496-0.199,0.816-0.594,0.965c-3.316,1.386-7.645,2.078-12.986,2.078c-7.818-0.196-13.357-2.176-16.623-5.937
			c-3.264-3.71-4.848-8.089-4.748-13.135c0-5.343,1.73-9.844,5.193-13.506c3.463-3.66,8.508-5.566,15.139-5.714L620.394,80.806z
			 M612.081,95.054h12.023c2.373,0,3.412-0.149,3.115-0.445v-0.446c0.051-0.89-0.422-1.929-1.408-3.116
			c-0.99-1.188-2.896-1.83-5.715-1.93c-2.375,0.1-4.205,0.742-5.492,1.93c-1.287,1.187-2.078,2.573-2.373,4.155v-0.074
			L612.081,95.054z"/>
		<path id="path1523" fill="#5BBFCB" d="M666.98,92.382c-3.414-1.781-7.445-2.77-12.098-2.968c-2.77,0.198-4.057,0.94-3.857,2.226
			c-0.102,0.545,0.271,1.065,1.111,1.558c0.844,0.545,2.6,1.311,5.271,2.3c4.352,1.484,7.518,3.117,9.498,4.898
			c1.977,1.781,2.967,4.007,2.967,6.678c-0.049,3.76-1.508,6.679-4.377,8.757c-2.871,2.077-6.779,3.116-11.725,3.116
			c-2.18,0-4.453-0.248-6.828-0.741c-2.373-0.494-4.527-1.237-6.455-2.228c-0.396-0.197-0.594-0.519-0.594-0.965v-8.386
			c0.098-0.396,0.318-0.494,0.668-0.297c4.848,2.573,9.473,3.933,13.877,4.081c2.867-0.197,4.229-0.989,4.08-2.375
			c0.1-0.643-0.297-1.262-1.188-1.855s-2.672-1.41-5.344-2.449c-4.551-1.583-7.717-3.265-9.498-5.046
			c-1.781-1.781-2.623-3.982-2.523-6.604c0-3.265,1.338-5.985,4.01-8.163c2.719-2.176,6.701-3.314,11.945-3.413
			c4.996,0.1,8.732,0.866,11.205,2.3c0.396,0.198,0.596,0.545,0.596,1.039l-0.148,7.643c0,0.495-0.248,0.668-0.742,0.519v-0.074
			L666.98,92.382z"/>
	</g>
	<g id="g1563">
		<g id="g1561">
			<path id="path1527" fill="#8DB823" d="M206.425,143.958c2.935-2.817,5.997-5.067,9.183-6.748c3.187-1.681,6.324-2.84,9.414-3.478
				c3.089-0.637,6.044-0.781,8.864-0.434c2.819,0.348,5.339,1.129,7.56,2.346c2.22,1.217,4.046,2.84,5.475,4.867
				c1.428,2.027,2.297,4.395,2.607,7.098c0.309,2.664,0.048,5.416-0.782,8.256c-0.831,2.839-2.048,5.658-3.65,8.457
				c-1.603,2.802-3.515,5.525-5.736,8.17c-2.221,2.646-4.597,5.089-7.126,7.328c-2.53,2.24-5.137,4.229-7.821,5.968
				c-2.685,1.737-5.263,3.108-7.734,4.112c-2.936,1.197-5.514,1.863-7.734,2c-2.221,0.135-4.056-0.135-5.504-0.813
				c-1.448-0.676-2.491-1.699-3.129-3.068c-0.637-1.373-0.859-2.955-0.666-4.752c0.194-1.797,0.82-3.746,1.883-5.852
				c1.062-2.104,2.578-4.258,4.548-6.459c1.236-1.393,2.5-2.646,3.795-3.768c1.294-1.119,2.529-2.144,3.708-3.07
				c1.178-0.928,2.26-1.758,3.244-2.49c0.985-0.734,1.805-1.371,2.462-1.912c0.154-0.311,0.55-1.121,1.188-2.434
				c0.637-1.313,1.409-2.887,2.318-4.721c0.907-1.834,1.912-3.814,3.013-5.939c1.1-2.123,2.172-4.15,3.215-6.082
				c0.347-0.695,0.898-1.023,1.651-0.984c0.753,0.037,1.467,0.26,2.144,0.664c0.675,0.406,1.207,0.92,1.593,1.535
				c0.386,0.619,0.386,1.18,0,1.682c-0.618,0.926-1.295,1.998-2.028,3.215c-0.734,1.217-1.448,2.424-2.144,3.621
				c-0.695,1.197-1.332,2.308-1.912,3.33c-0.579,1.023-1.024,1.787-1.332,2.289c0.888-0.426,1.747-0.813,2.578-1.16
				c0.83-0.348,1.709-0.713,2.636-1.102c0.425-0.152,0.849-0.027,1.275,0.377c0.425,0.406,0.743,0.898,0.956,1.479
				c0.212,0.58,0.261,1.158,0.145,1.738c-0.116,0.578-0.484,0.965-1.101,1.158c-1.005,0.426-2.019,0.869-3.041,1.332
				c-1.024,0.463-2.009,0.928-2.955,1.391c-0.947,0.465-1.835,0.938-2.665,1.42c-0.831,0.482-1.535,0.937-2.115,1.359
				c-0.85,1.508-1.642,3.063-2.375,4.664c-0.734,1.604-1.419,3.188-2.057,4.752c-0.637,1.563-1.236,3.07-1.796,4.52
				s-1.072,2.771-1.535,3.97c-0.193,0.424-0.57,0.694-1.13,0.812c-0.56,0.114-1.13,0.086-1.709-0.089
				c-0.579-0.174-1.072-0.473-1.477-0.897c-0.405-0.424-0.55-0.926-0.434-1.506c0.038-0.271,0.251-0.851,0.638-1.738
				c0.385-0.889,0.82-1.883,1.303-2.982c0.482-1.102,0.994-2.23,1.535-3.389c0.54-1.16,1.004-2.164,1.39-3.014
				c-1.854,1.197-3.602,2.686-5.243,4.461c-1.642,1.777-2.993,3.543-4.055,5.301c-1.063,1.758-1.748,3.359-2.057,4.809
				s-0.039,2.463,0.811,3.043c1.12,0.771,2.636,1.053,4.548,0.84c1.912-0.213,4.026-0.82,6.344-1.824
				c2.163-0.965,4.403-2.239,6.72-3.823c2.317-1.584,4.577-3.38,6.778-5.39c2.202-2.008,4.267-4.18,6.199-6.518
				c1.931-2.336,3.611-4.74,5.04-7.213c1.429-2.471,2.539-4.963,3.331-7.475c0.791-2.51,1.13-4.924,1.014-7.24
				c-0.116-2.318-0.686-4.307-1.709-5.969c-1.024-1.66-2.385-2.943-4.084-3.853c-1.7-0.905-3.67-1.418-5.909-1.534
				c-2.24-0.115-4.606,0.202-7.097,0.957c-2.491,0.752-5.04,1.969-7.647,3.649c-2.607,1.68-5.147,3.87-7.619,6.573
				c-0.347,0.465-0.831,0.601-1.448,0.406c-0.618-0.193-1.188-0.539-1.709-1.043c-0.521-0.502-0.898-1.063-1.13-1.68
				C205.904,144.846,206,144.344,206.425,143.958L206.425,143.958z"/>
			<path id="path1529" fill="#8DB823" d="M250.338,177.155c0.425,0.312,1.062,0.377,1.912,0.203
				c0.849-0.174,1.815-0.502,2.897-0.983c1.081-0.481,2.22-1.072,3.418-1.769c1.196-0.695,2.365-1.428,3.505-2.201
				c1.139-0.772,2.192-1.555,3.158-2.346c0.965-0.791,1.776-1.496,2.433-2.115c0.232-0.192,0.502-0.231,0.811-0.117
				c0.309,0.117,0.55,0.33,0.724,0.64c0.174,0.31,0.232,0.656,0.174,1.041c-0.058,0.388-0.358,0.733-0.898,1.043
				c-0.85,0.772-1.845,1.651-2.984,2.638c-1.14,0.983-2.356,1.951-3.65,2.896c-1.295,0.946-2.636,1.836-4.027,2.666
				c-1.39,0.83-2.752,1.517-4.084,2.058s-2.617,0.889-3.852,1.041c-1.237,0.155-2.356,0-3.36-0.464
				c-1.12-0.5-1.892-1.226-2.317-2.172c-0.425-0.944-0.57-2.019-0.435-3.215c0.136-1.197,0.502-2.472,1.101-3.824
				c0.599-1.351,1.332-2.685,2.201-3.998c0.869-1.313,1.854-2.539,2.955-3.678c1.101-1.14,2.211-2.115,3.331-2.927
				c1.507-1.043,2.906-1.651,4.2-1.825c1.294-0.175,2.326,0.01,3.099,0.551c0.772,0.541,1.197,1.381,1.275,2.521
				c0.077,1.141-0.329,2.481-1.217,4.024c-0.579,0.929-1.284,1.826-2.115,2.695c-0.831,0.868-1.719,1.62-2.665,2.26
				c-0.947,0.638-1.912,1.119-2.897,1.446c-0.985,0.33-1.903,0.416-2.752,0.263c-0.116,0.192-0.231,0.453-0.347,0.781
				c-0.116,0.329-0.184,0.676-0.203,1.043c-0.02,0.366,0.009,0.726,0.087,1.071C249.894,176.749,250.068,177.001,250.338,177.155
				L250.338,177.155z M251.381,171.247c0.811-0.078,1.815-0.562,3.013-1.449c1.197-0.89,2.24-2.203,3.129-3.94
				c0.309-0.578,0.443-0.965,0.405-1.158c-0.039-0.193-0.184-0.24-0.434-0.146c-0.252,0.097-0.599,0.318-1.043,0.666
				c-0.444,0.349-0.898,0.772-1.361,1.274c-0.811,0.851-1.584,1.748-2.317,2.693C252.038,170.135,251.574,170.821,251.381,171.247
				L251.381,171.247z"/>
			<path id="path1531" fill="#8DB823" d="M280.29,161.049c-1.274,0.271-2.607,0.83-3.998,1.68c-1.39,0.851-2.607,1.875-3.65,3.07
				c-1.043,1.197-1.796,2.512-2.259,3.939c-0.464,1.43-0.406,2.84,0.173,4.229c0.27-0.191,0.762-0.473,1.477-0.84
				c0.714-0.367,1.525-0.791,2.433-1.273c0.907-0.481,1.873-0.977,2.897-1.479c1.023-0.502,1.989-0.984,2.897-1.449
				c0.907-0.463,1.699-0.857,2.375-1.188c0.675-0.328,1.13-0.551,1.361-0.666c0.425-0.193,0.782-0.184,1.072,0.029
				c0.289,0.213,0.492,0.502,0.608,0.868c0.116,0.367,0.116,0.763,0,1.188c-0.116,0.426-0.368,0.754-0.753,0.984
				c-0.579,0.348-1.429,0.803-2.549,1.36c-1.121,0.562-2.327,1.181-3.621,1.854c-1.294,0.676-2.559,1.353-3.795,2.027
				c-1.237,0.676-2.26,1.303-3.071,1.883c0.193,0.695,0.357,1.459,0.492,2.289c0.135,0.83,0.164,1.709,0.087,2.635
				c-0.078,0.929-0.299,1.875-0.666,2.84c-0.368,0.966-0.956,1.931-1.767,2.896c-1.468,1.738-2.936,2.992-4.403,3.766
				c-1.467,0.771-2.81,1.179-4.027,1.218c-1.216,0.038-2.239-0.253-3.071-0.869c-0.83-0.617-1.342-1.457-1.535-2.521
				c-0.193-1.063-0.009-2.309,0.55-3.735c0.56-1.429,1.651-2.955,3.273-4.578c0.889-0.849,1.864-1.699,2.926-2.55
				c1.063-0.848,2.192-1.68,3.389-2.489c-1.004-2.164-1.333-4.287-0.985-6.373c0.348-2.086,1.12-4.026,2.318-5.821
				c1.196-1.798,2.703-3.39,4.519-4.781c1.815-1.39,3.708-2.471,5.678-3.244c0.656-0.23,1.246-0.125,1.767,0.32
				c0.521,0.442,0.878,0.994,1.072,1.649c0.193,0.657,0.212,1.304,0.058,1.94C281.41,160.499,280.986,160.895,280.29,161.049z
				 M267.95,179.878c-0.773,0.541-1.729,1.295-2.868,2.26c-1.139,0.966-2.076,1.97-2.81,3.013c-1.197,1.738-1.573,2.83-1.13,3.272
				c0.444,0.444,1.342,0.106,2.694-1.015c0.734-0.579,1.391-1.217,1.97-1.911c0.58-0.695,1.052-1.382,1.419-2.058
				c0.367-0.674,0.618-1.322,0.753-1.94C268.114,180.883,268.104,180.34,267.95,179.878L267.95,179.878z"/>
			<path id="path1533" fill="#8DB823" d="M300.626,168.233c0.271-0.153,0.54-0.184,0.813-0.086c0.27,0.096,0.492,0.26,0.666,0.49
				c0.174,0.232,0.261,0.492,0.261,0.783c0,0.289-0.116,0.549-0.347,0.781c-0.695,0.695-1.557,1.516-2.578,2.463
				c-1.024,0.945-2.154,1.91-3.391,2.896c-1.235,0.983-2.528,1.94-3.882,2.866c-1.353,0.929-2.704,1.69-4.056,2.289
				s-2.665,0.994-3.94,1.188c-1.274,0.193-2.453,0.059-3.534-0.404c-1.081-0.465-1.825-1.197-2.23-2.203
				c-0.406-1.004-0.511-2.162-0.319-3.477c0.194-1.313,0.666-2.703,1.419-4.17s1.738-2.896,2.955-4.287
				c1.216-1.392,2.636-2.674,4.258-3.854c1.622-1.178,3.398-2.114,5.33-2.81c0.695-0.271,1.294-0.184,1.796,0.261
				c0.504,0.444,0.83,0.996,0.985,1.651c0.154,0.656,0.116,1.322-0.116,1.998c-0.229,0.676-0.715,1.131-1.446,1.361
				c-2.356,0.695-4.297,1.738-5.823,3.129c-1.526,1.391-2.598,2.742-3.215,4.057c-0.618,1.313-0.763,2.425-0.435,3.33
				c0.328,0.908,1.188,1.246,2.578,1.015c0.965-0.153,2.115-0.617,3.447-1.39c1.333-0.772,2.674-1.651,4.024-2.637
				c1.353-0.984,2.638-1.959,3.854-2.926C298.916,169.585,299.891,168.813,300.626,168.233L300.626,168.233z"/>
			<path id="path1535" fill="#8DB823" d="M303.29,161.801c0.386-0.539,0.898-0.762,1.535-0.666c0.637,0.098,1.226,0.34,1.767,0.725
				c0.54,0.388,0.946,0.851,1.218,1.392c0.27,0.541,0.212,0.985-0.176,1.334c-0.192,0.153-0.53,0.627-1.014,1.418
				c-0.482,0.793-1.022,1.729-1.622,2.812c-0.599,1.082-1.188,2.211-1.767,3.389c-0.579,1.18-1.043,2.24-1.392,3.188
				c-0.348,0.948-0.53,1.68-0.55,2.201s0.241,0.646,0.782,0.377c0.656-0.311,1.438-0.889,2.346-1.738
				c0.908-0.849,1.854-1.824,2.839-2.926c0.985-1.102,1.979-2.287,2.984-3.563c1.004-1.274,1.941-2.491,2.81-3.649
				c0.869-1.159,1.633-2.221,2.289-3.188c0.656-0.965,1.14-1.698,1.448-2.2c0.386-0.656,0.907-0.976,1.564-0.955
				c0.654,0.021,1.273,0.224,1.854,0.606c0.58,0.387,1.023,0.851,1.333,1.392c0.311,0.541,0.328,1.006,0.06,1.392
				c-0.116,0.153-0.35,0.579-0.695,1.273c-0.348,0.695-0.724,1.518-1.13,2.462c-0.405,0.946-0.813,1.961-1.216,3.041
				c-0.406,1.082-0.717,2.075-0.929,2.983c-0.213,0.906-0.31,1.67-0.29,2.287c0.021,0.617,0.263,0.928,0.726,0.928
				c0.385,0,0.975-0.252,1.767-0.754c0.791-0.5,1.66-1.157,2.607-1.971c0.944-0.811,1.939-1.697,2.981-2.664
				c1.042-0.965,2.029-1.893,2.955-2.781c0.271-0.27,0.57-0.385,0.898-0.348c0.328,0.039,0.607,0.174,0.84,0.406
				c0.23,0.23,0.355,0.541,0.377,0.926c0.02,0.389-0.107,0.793-0.377,1.219c-0.578,0.617-1.254,1.322-2.027,2.113
				c-0.771,0.793-1.611,1.613-2.52,2.463c-0.908,0.85-1.825,1.66-2.752,2.434c-0.929,0.771-1.847,1.449-2.752,2.027
				c-0.908,0.58-1.748,1.006-2.521,1.275c-0.772,0.27-1.448,0.311-2.028,0.115c-1.506-0.502-2.451-1.457-2.839-2.867
				c-0.386-1.41-0.309-3.273,0.232-5.592c-1.545,1.816-3.091,3.604-4.635,5.359c-1.545,1.758-3.304,3.178-5.272,4.258
				c-0.966,0.541-1.883,0.813-2.752,0.813s-1.641-0.175-2.318-0.521c-0.675-0.348-1.216-0.85-1.62-1.506
				c-0.406-0.656-0.629-1.41-0.666-2.262c-0.038-0.578,0.087-1.32,0.377-2.229c0.29-0.907,0.666-1.893,1.13-2.955
				c0.463-1.063,0.983-2.164,1.563-3.303s1.159-2.229,1.738-3.272c0.58-1.043,1.12-1.97,1.622-2.781
				C302.575,162.903,302.98,162.266,303.29,161.801L303.29,161.801z"/>
			<path id="path1537" fill="#8DB823" d="M321.654,185.033c0.541-2.161,1.323-4.575,2.346-7.241
				c1.024-2.664,2.203-5.416,3.535-8.257c1.332-2.838,2.771-5.678,4.316-8.516s3.107-5.533,4.691-8.082
				c1.582-2.549,3.129-4.875,4.635-6.979c1.508-2.104,2.896-3.813,4.172-5.129c0.502-0.539,1.131-0.714,1.883-0.521
				c0.754,0.193,1.398,0.568,1.939,1.129c0.541,0.562,0.879,1.217,1.016,1.971c0.135,0.753-0.146,1.4-0.84,1.941
				c-0.617,0.502-1.457,1.303-2.521,2.402c-1.063,1.102-2.221,2.443-3.475,4.025c-1.258,1.584-2.57,3.332-3.941,5.244
				s-2.693,3.91-3.969,5.996s-2.443,4.209-3.504,6.373c-1.064,2.161-1.922,4.268-2.578,6.313c0.463-0.695,1.146-1.728,2.057-3.099
				c0.906-1.371,1.941-2.83,3.1-4.375s2.414-3.051,3.766-4.52c1.352-1.467,2.703-2.664,4.057-3.592
				c1.275-0.889,2.461-1.418,3.563-1.594c1.102-0.174,2.047-0.066,2.84,0.319c0.791,0.388,1.408,1.005,1.854,1.854
				c0.443,0.85,0.646,1.863,0.607,3.041c-0.039,1.18-0.328,2.463-0.869,3.852c-0.541,1.393-1.391,2.82-2.549,4.287
				c0.58-0.23,1.381-0.539,2.404-0.926c1.021-0.387,2.064-0.791,3.129-1.219c1.063-0.424,2.076-0.812,3.043-1.158
				c0.965-0.348,1.717-0.617,2.258-0.811c0.387-0.117,0.705-0.06,0.957,0.174c0.25,0.231,0.414,0.521,0.492,0.869
				c0.076,0.348,0.057,0.705-0.061,1.071c-0.113,0.367-0.348,0.627-0.693,0.781c-0.463,0.194-1.094,0.454-1.885,0.782
				s-1.67,0.705-2.635,1.129c-0.967,0.427-1.979,0.88-3.041,1.361c-1.063,0.484-2.066,0.947-3.014,1.391
				c-0.947,0.445-1.816,0.869-2.607,1.275c-0.791,0.404-1.398,0.743-1.822,1.014c-1.508,1.621-2.891,2.906-4.145,3.853
				c-1.254,0.947-2.375,1.613-3.357,1.998c-0.986,0.388-1.826,0.552-2.521,0.492c-0.695-0.058-1.238-0.3-1.623-0.724
				c-0.889-0.928-0.879-2.135,0.029-3.621c0.908-1.485,2.869-2.965,5.881-4.432c0.732-0.348,1.514-0.938,2.346-1.768
				c0.83-0.83,1.604-1.738,2.318-2.725c0.713-0.984,1.342-1.979,1.883-2.982c0.539-1.004,0.877-1.834,1.014-2.492
				c0.137-0.654,0.029-1.08-0.318-1.273c-0.35-0.192-1.023,0.021-2.027,0.638c-1.006,0.618-2.068,1.487-3.188,2.606
				c-1.121,1.121-2.25,2.375-3.391,3.766c-1.139,1.392-2.27,2.851-3.389,4.375c-1.121,1.525-2.145,2.992-3.07,4.402
				c-0.928,1.412-1.748,2.705-2.463,3.883c-0.715,1.179-1.264,2.097-1.65,2.752c-0.465,0.812-1.014,1.304-1.65,1.478
				c-0.636,0.175-1.228,0.153-1.769-0.06c-0.54-0.213-0.975-0.569-1.303-1.071C321.586,186.212,321.5,185.653,321.654,185.033
				L321.654,185.033z"/>
			<path id="path1539" fill="#8DB823" d="M369.276,165.973c-0.889,0.387-1.934,1.18-3.129,2.375
				c-1.197,1.197-2.443,2.549-3.736,4.055c-1.295,1.508-2.578,3.063-3.854,4.664c-1.273,1.604-2.414,3.023-3.418,4.258
				c-0.617,0.773-1.293,1.218-2.027,1.334c-0.734,0.115-1.381,0.029-1.941-0.262c-0.561-0.289-0.984-0.742-1.273-1.361
				c-0.291-0.616-0.32-1.272-0.088-1.969c0.463-1.235,1.188-2.811,2.172-4.723c0.984-1.91,2.049-3.803,3.186-5.678
				c1.141-1.873,2.223-3.553,3.244-5.039c1.023-1.486,1.805-2.463,2.346-2.928c0.502-0.463,1.055-0.598,1.652-0.404
				s1.119,0.531,1.564,1.014c0.441,0.482,0.723,1.014,0.84,1.594c0.113,0.58-0.021,1.023-0.406,1.332
				c-0.502,0.388-1.072,0.947-1.709,1.681c-0.639,0.733-1.295,1.563-1.971,2.491c-0.678,0.927-1.354,1.894-2.027,2.896
				c-0.676,1.006-1.285,1.951-1.826,2.84s-1.014,1.66-1.418,2.316c-0.406,0.656-0.666,1.102-0.783,1.332
				c0.541-0.617,1.285-1.535,2.23-2.752c0.947-1.217,1.99-2.529,3.129-3.939c1.139-1.408,2.365-2.811,3.678-4.199
				c1.314-1.391,2.607-2.588,3.883-3.592c1.275-1.006,2.512-1.729,3.707-2.174c1.197-0.443,2.262-0.396,3.189,0.146
				c0.848,0.464,1.234,1.121,1.158,1.97c-0.078,0.851-0.318,1.758-0.725,2.724c-0.406,0.967-0.832,1.932-1.273,2.897
				c-0.445,0.965-0.609,1.795-0.492,2.489c0.037,0.271,0.27,0.377,0.695,0.32c0.424-0.059,0.943-0.242,1.563-0.551
				c0.617-0.311,1.313-0.742,2.086-1.303c0.771-0.561,1.525-1.207,2.258-1.941c0.232-0.232,0.475-0.338,0.727-0.318
				c0.25,0.021,0.453,0.125,0.605,0.318c0.154,0.193,0.213,0.443,0.174,0.754c-0.037,0.309-0.23,0.637-0.578,0.984
				c-2.279,2.238-4.424,3.766-6.432,4.576c-2.01,0.813-3.611,1.014-4.809,0.607c-1.199-0.404-1.875-1.369-2.029-2.896
				C367.269,170.385,367.886,168.406,369.276,165.973L369.276,165.973z"/>
			<path id="path1541" fill="#8DB823" d="M383.065,177.155c0.424,0.312,1.061,0.377,1.912,0.203
				c0.848-0.174,1.813-0.502,2.895-0.983s2.221-1.072,3.418-1.769c1.197-0.695,2.365-1.428,3.506-2.201
				c1.141-0.772,2.191-1.555,3.158-2.346c0.965-0.791,1.775-1.496,2.434-2.115c0.23-0.192,0.502-0.231,0.811-0.117
				c0.309,0.117,0.551,0.33,0.725,0.64c0.176,0.31,0.232,0.656,0.176,1.041c-0.061,0.388-0.359,0.733-0.898,1.043
				c-0.85,0.772-1.846,1.651-2.984,2.638c-1.139,0.983-2.354,1.951-3.648,2.896c-1.295,0.946-2.635,1.836-4.027,2.666
				c-1.389,0.83-2.752,1.517-4.084,2.058s-2.617,0.889-3.852,1.041c-1.236,0.155-2.355,0-3.359-0.464
				c-1.121-0.5-1.893-1.226-2.318-2.172c-0.424-0.944-0.568-2.019-0.434-3.215c0.135-1.197,0.502-2.472,1.102-3.824
				c0.6-1.351,1.332-2.685,2.201-3.998s1.854-2.539,2.955-3.678c1.102-1.14,2.211-2.115,3.33-2.927
				c1.508-1.043,2.906-1.651,4.201-1.825c1.293-0.175,2.326,0.01,3.098,0.551c0.773,0.541,1.197,1.381,1.275,2.521
				c0.078,1.141-0.328,2.481-1.217,4.024c-0.578,0.929-1.283,1.826-2.115,2.695c-0.83,0.868-1.719,1.62-2.664,2.26
				c-0.947,0.638-1.912,1.119-2.898,1.446c-0.982,0.33-1.9,0.416-2.752,0.263c-0.113,0.192-0.229,0.453-0.346,0.781
				c-0.117,0.329-0.184,0.676-0.203,1.043c-0.02,0.366,0.008,0.726,0.086,1.071C382.62,176.749,382.794,177.001,383.065,177.155
				L383.065,177.155z M384.108,171.247c0.811-0.078,1.813-0.562,3.012-1.449c1.197-0.89,2.24-2.203,3.129-3.94
				c0.311-0.578,0.443-0.965,0.406-1.158c-0.039-0.193-0.184-0.24-0.438-0.146c-0.252,0.097-0.598,0.318-1.043,0.666
				c-0.441,0.349-0.896,0.772-1.359,1.274c-0.813,0.851-1.584,1.748-2.316,2.693C384.765,170.135,384.3,170.821,384.108,171.247
				L384.108,171.247z"/>
			<path id="path1543" fill="#8DB823" d="M439.319,138.919c0.5-0.463,1.1-0.58,1.795-0.349c0.695,0.232,1.295,0.638,1.797,1.218
				c0.502,0.579,0.813,1.228,0.926,1.94c0.117,0.715-0.152,1.344-0.811,1.883c-0.889,0.734-1.758,1.517-2.607,2.347
				c-0.85,0.832-1.68,1.69-2.49,2.577c0.771-0.036,1.682-0.057,2.725-0.057s2.094,0.021,3.158,0.057
				c1.061,0.039,2.072,0.099,3.041,0.175c0.965,0.078,1.773,0.174,2.432,0.291c0.502,0.153,0.801,0.491,0.898,1.015
				c0.096,0.52,0.027,1.043-0.203,1.563c-0.232,0.521-0.6,0.947-1.102,1.273c-0.502,0.328-1.082,0.396-1.736,0.203
				c-0.58-0.154-1.371-0.299-2.375-0.434c-1.008-0.137-2.076-0.252-3.217-0.35c-1.141-0.097-2.299-0.164-3.477-0.203
				c-1.178-0.037-2.23-0.037-3.158,0c-1.738,2.24-3.33,4.567-4.779,6.981c-1.445,2.414-2.752,4.8-3.908,7.154
				c-1.158,2.356-2.164,4.627-3.014,6.807c-0.85,2.183-1.572,4.183-2.172,5.996c-0.6,1.815-1.053,3.399-1.363,4.752
				c-0.309,1.353-0.502,2.356-0.576,3.013c-0.078,0.619-0.465,1.082-1.16,1.393c-0.695,0.309-1.418,0.424-2.172,0.348
				c-0.752-0.078-1.408-0.348-1.971-0.813c-0.559-0.463-0.725-1.156-0.49-2.084c0.732-2.857,1.688-5.766,2.865-8.719
				c1.18-2.955,2.463-5.871,3.854-8.748s2.857-5.668,4.404-8.371c1.545-2.703,3.068-5.232,4.574-7.59
				c-1.428,0.116-2.904,0.311-4.432,0.58c-1.525,0.271-2.926,0.616-4.199,1.043c-0.543,0.271-1.043,0.271-1.508,0
				c-0.463-0.271-0.801-0.646-1.014-1.132c-0.211-0.481-0.25-0.983-0.115-1.506c0.135-0.521,0.57-0.879,1.303-1.071
				c1.969-0.541,3.998-0.908,6.082-1.103c2.086-0.192,4.209-0.349,6.373-0.464c1.545-2.239,2.994-4.18,4.346-5.821
				C437.194,141.071,438.353,139.807,439.319,138.919L439.319,138.919z"/>
			<path id="path1545" fill="#8DB823" d="M436.247,161.801c0.387-0.539,0.898-0.762,1.535-0.666c0.637,0.098,1.227,0.34,1.768,0.725
				c0.539,0.388,0.945,0.851,1.217,1.392c0.27,0.541,0.213,0.985-0.174,1.334c-0.193,0.153-0.531,0.627-1.014,1.418
				c-0.484,0.793-1.023,1.729-1.623,2.812c-0.598,1.082-1.188,2.211-1.766,3.389c-0.58,1.18-1.043,2.24-1.393,3.188
				c-0.348,0.948-0.529,1.68-0.549,2.201s0.24,0.646,0.781,0.377c0.656-0.311,1.438-0.889,2.346-1.738
				c0.908-0.849,1.855-1.824,2.84-2.926s1.979-2.287,2.984-3.563c1.004-1.274,1.941-2.491,2.811-3.649
				c0.867-1.159,1.631-2.221,2.287-3.188c0.656-0.965,1.141-1.698,1.449-2.2c0.385-0.656,0.906-0.976,1.564-0.955
				c0.654,0.021,1.273,0.224,1.854,0.606c0.58,0.387,1.023,0.851,1.332,1.392c0.311,0.541,0.328,1.006,0.061,1.392
				c-0.117,0.153-0.35,0.579-0.695,1.273c-0.348,0.695-0.725,1.518-1.131,2.462c-0.404,0.946-0.813,1.961-1.215,3.041
				c-0.406,1.082-0.717,2.075-0.93,2.983c-0.213,0.906-0.309,1.67-0.289,2.287s0.262,0.928,0.725,0.928
				c0.385,0,0.975-0.252,1.768-0.754c0.791-0.5,1.66-1.157,2.607-1.971c0.943-0.811,1.939-1.697,2.98-2.664
				c1.043-0.965,2.029-1.893,2.955-2.781c0.271-0.27,0.57-0.385,0.898-0.348c0.328,0.039,0.607,0.174,0.84,0.406
				c0.23,0.23,0.355,0.541,0.377,0.926c0.02,0.389-0.107,0.793-0.377,1.219c-0.578,0.617-1.254,1.322-2.027,2.113
				c-0.771,0.793-1.611,1.613-2.52,2.463s-1.826,1.66-2.752,2.434c-0.93,0.771-1.848,1.449-2.752,2.027
				c-0.908,0.58-1.748,1.006-2.521,1.275s-1.449,0.311-2.029,0.115c-1.506-0.502-2.451-1.457-2.838-2.867s-0.309-3.273,0.232-5.592
				c-1.545,1.816-3.092,3.604-4.635,5.359c-1.545,1.758-3.305,3.178-5.273,4.258c-0.965,0.541-1.883,0.813-2.752,0.813
				s-1.641-0.175-2.318-0.521c-0.674-0.348-1.215-0.85-1.621-1.506c-0.404-0.656-0.627-1.41-0.664-2.262
				c-0.039-0.578,0.086-1.32,0.377-2.229c0.289-0.907,0.666-1.893,1.129-2.955s0.984-2.164,1.563-3.303
				c0.58-1.139,1.16-2.229,1.738-3.272c0.58-1.043,1.121-1.97,1.623-2.781C435.532,162.903,435.939,162.266,436.247,161.801
				L436.247,161.801z"/>
			<path id="path1547" fill="#8DB823" d="M474.368,161.049c-1.275,0.271-2.607,0.83-3.998,1.68c-1.391,0.851-2.605,1.875-3.648,3.07
				c-1.045,1.197-1.799,2.512-2.262,3.939c-0.463,1.43-0.404,2.84,0.174,4.229c0.271-0.191,0.764-0.473,1.479-0.84
				s1.523-0.791,2.434-1.273c0.906-0.481,1.873-0.977,2.896-1.479c1.021-0.502,1.99-0.984,2.896-1.449
				c0.906-0.463,1.699-0.857,2.375-1.188c0.676-0.328,1.129-0.551,1.361-0.666c0.424-0.193,0.781-0.184,1.072,0.029
				c0.289,0.213,0.492,0.502,0.605,0.868c0.117,0.367,0.117,0.763,0,1.188c-0.113,0.426-0.367,0.754-0.752,0.984
				c-0.58,0.348-1.43,0.803-2.549,1.36c-1.121,0.562-2.328,1.181-3.621,1.854c-1.295,0.676-2.559,1.353-3.795,2.027
				c-1.238,0.676-2.26,1.303-3.072,1.883c0.193,0.695,0.357,1.459,0.492,2.289s0.164,1.709,0.088,2.635
				c-0.078,0.929-0.299,1.875-0.666,2.84c-0.367,0.966-0.957,1.931-1.768,2.896c-1.467,1.738-2.938,2.992-4.402,3.766
				c-1.467,0.771-2.811,1.179-4.025,1.218c-1.219,0.038-2.24-0.253-3.072-0.869c-0.83-0.617-1.342-1.457-1.535-2.521
				c-0.193-1.063-0.008-2.309,0.551-3.735c0.561-1.429,1.65-2.955,3.273-4.578c0.889-0.849,1.863-1.699,2.926-2.55
				c1.063-0.848,2.191-1.68,3.389-2.489c-1.004-2.164-1.334-4.287-0.984-6.373c0.348-2.086,1.121-4.026,2.316-5.821
				c1.197-1.798,2.703-3.39,4.521-4.781c1.813-1.39,3.707-2.471,5.678-3.244c0.656-0.23,1.246-0.125,1.768,0.32
				c0.521,0.442,0.879,0.994,1.07,1.649c0.193,0.657,0.213,1.304,0.061,1.94C475.487,160.499,475.064,160.895,474.368,161.049z
				 M462.028,179.878c-0.773,0.541-1.73,1.295-2.869,2.26c-1.139,0.966-2.076,1.97-2.809,3.013c-1.197,1.738-1.574,2.83-1.131,3.272
				c0.443,0.444,1.342,0.106,2.693-1.015c0.734-0.579,1.391-1.217,1.969-1.911c0.58-0.695,1.055-1.382,1.42-2.058
				c0.367-0.674,0.617-1.322,0.754-1.94C462.192,180.883,462.183,180.34,462.028,179.878L462.028,179.878z"/>
			<path id="path1549" fill="#8DB823" d="M509.243,161.049c-1.273,0.271-2.607,0.83-3.998,1.68c-1.389,0.851-2.605,1.875-3.65,3.07
				c-1.043,1.197-1.795,2.512-2.258,3.939c-0.465,1.43-0.404,2.84,0.174,4.229c0.271-0.191,0.764-0.473,1.479-0.84
				c0.713-0.367,1.525-0.791,2.432-1.273c0.908-0.481,1.873-0.977,2.898-1.479c1.021-0.502,1.988-0.984,2.895-1.449
				c0.908-0.463,1.699-0.857,2.375-1.188c0.678-0.328,1.131-0.551,1.361-0.666c0.424-0.193,0.783-0.184,1.072,0.029
				s0.492,0.502,0.607,0.868c0.115,0.367,0.115,0.763,0,1.188s-0.367,0.754-0.754,0.984c-0.578,0.348-1.428,0.803-2.549,1.36
				c-1.121,0.562-2.328,1.181-3.621,1.854c-1.293,0.676-2.559,1.353-3.793,2.027c-1.238,0.676-2.26,1.303-3.072,1.883
				c0.193,0.695,0.357,1.459,0.492,2.289c0.137,0.83,0.164,1.709,0.088,2.635c-0.078,0.929-0.299,1.875-0.666,2.84
				c-0.367,0.966-0.957,1.931-1.768,2.896c-1.467,1.738-2.938,2.992-4.402,3.766c-1.467,0.771-2.811,1.179-4.025,1.218
				c-1.219,0.038-2.24-0.253-3.072-0.869c-0.83-0.617-1.342-1.457-1.535-2.521c-0.193-1.063-0.008-2.309,0.551-3.735
				c0.561-1.429,1.65-2.955,3.273-4.578c0.889-0.849,1.863-1.699,2.926-2.55c1.063-0.848,2.191-1.68,3.389-2.489
				c-1.004-2.164-1.334-4.287-0.984-6.373c0.348-2.086,1.121-4.026,2.316-5.821c1.197-1.798,2.703-3.39,4.521-4.781
				c1.813-1.39,3.707-2.471,5.678-3.244c0.656-0.23,1.246-0.125,1.768,0.32c0.521,0.442,0.879,0.994,1.07,1.649
				c0.193,0.657,0.213,1.304,0.061,1.94C510.364,160.499,509.939,160.895,509.243,161.049z M496.903,179.878
				c-0.773,0.541-1.729,1.295-2.867,2.26c-1.139,0.966-2.076,1.97-2.811,3.013c-1.197,1.738-1.572,2.83-1.131,3.272
				c0.443,0.444,1.344,0.106,2.693-1.015c0.734-0.579,1.393-1.217,1.971-1.911c0.58-0.695,1.053-1.382,1.42-2.058
				c0.365-0.674,0.617-1.322,0.754-1.94C497.067,180.883,497.058,180.34,496.903,179.878L496.903,179.878z"/>
			<path id="path1551" fill="#8DB823" d="M514.341,161.801c0.389-0.539,0.898-0.762,1.535-0.666c0.637,0.098,1.229,0.34,1.77,0.725
				c0.539,0.388,0.943,0.851,1.215,1.392c0.27,0.541,0.213,0.985-0.172,1.334c-0.195,0.153-0.533,0.627-1.016,1.418
				c-0.482,0.793-1.023,1.729-1.623,2.812c-0.598,1.082-1.188,2.211-1.766,3.389c-0.58,1.18-1.043,2.24-1.391,3.188
				c-0.35,0.947-0.531,1.68-0.551,2.201s0.24,0.646,0.781,0.377c0.656-0.311,1.439-0.889,2.348-1.738
				c0.906-0.85,1.854-1.824,2.838-2.926s1.98-2.287,2.984-3.563c1.004-1.274,1.941-2.491,2.811-3.649
				c0.869-1.159,1.631-2.221,2.289-3.188c0.654-0.965,1.139-1.698,1.447-2.2c0.387-0.656,0.906-0.976,1.564-0.955
				c0.654,0.021,1.273,0.224,1.854,0.606c0.58,0.387,1.023,0.851,1.332,1.392c0.311,0.541,0.328,1.006,0.061,1.392
				c-0.117,0.153-0.35,0.579-0.695,1.273c-0.348,0.695-0.725,1.518-1.131,2.462c-0.404,0.946-0.811,1.961-1.215,3.041
				c-0.406,1.082-0.717,2.075-0.928,2.983c-0.215,0.906-0.311,1.67-0.291,2.287s0.262,0.928,0.725,0.928
				c0.385,0,0.975-0.252,1.768-0.754c0.791-0.5,1.66-1.157,2.607-1.971c0.945-0.811,1.939-1.697,2.982-2.664
				c1.045-0.965,2.027-1.893,2.955-2.781c0.271-0.27,0.568-0.385,0.898-0.348c0.328,0.039,0.607,0.174,0.84,0.406
				c0.232,0.23,0.357,0.541,0.377,0.926c0.02,0.389-0.105,0.793-0.377,1.219c-0.58,0.617-1.256,1.322-2.027,2.113
				c-0.773,0.793-1.613,1.613-2.521,2.463s-1.824,1.66-2.752,2.434c-0.926,0.772-1.844,1.449-2.752,2.027
				c-0.908,0.58-1.748,1.006-2.521,1.275c-0.771,0.27-1.445,0.311-2.025,0.115c-1.506-0.502-2.453-1.457-2.84-2.867
				c-0.389-1.41-0.311-3.273,0.23-5.592c-1.545,1.816-3.09,3.604-4.635,5.359c-1.545,1.758-3.301,3.178-5.271,4.258
				c-0.967,0.541-1.883,0.813-2.752,0.813c-0.867,0-1.641-0.175-2.316-0.521c-0.676-0.348-1.217-0.85-1.623-1.506
				s-0.627-1.41-0.666-2.262c-0.037-0.578,0.088-1.32,0.377-2.229c0.291-0.907,0.666-1.893,1.131-2.955
				c0.463-1.063,0.984-2.164,1.564-3.303c0.576-1.139,1.156-2.229,1.736-3.272s1.119-1.97,1.621-2.781
				C513.626,162.903,514.032,162.266,514.341,161.801L514.341,161.801z"/>
			<path id="path1553" fill="#8DB823" d="M542.44,177.155c0.424,0.312,1.061,0.377,1.912,0.203c0.848-0.174,1.813-0.502,2.895-0.983
				s2.221-1.072,3.418-1.769c1.197-0.695,2.365-1.428,3.506-2.201c1.141-0.772,2.191-1.555,3.158-2.346
				c0.965-0.791,1.775-1.496,2.434-2.115c0.23-0.192,0.502-0.231,0.811-0.117c0.309,0.117,0.551,0.33,0.725,0.64
				c0.176,0.31,0.232,0.656,0.176,1.041c-0.061,0.388-0.359,0.733-0.898,1.043c-0.85,0.772-1.846,1.651-2.984,2.638
				c-1.141,0.983-2.355,1.951-3.648,2.896c-1.295,0.946-2.639,1.836-4.027,2.666c-1.391,0.83-2.752,1.517-4.084,2.058
				s-2.617,0.889-3.852,1.041c-1.238,0.155-2.357,0-3.361-0.464c-1.119-0.5-1.891-1.226-2.316-2.172
				c-0.426-0.944-0.568-2.019-0.436-3.215c0.137-1.197,0.502-2.472,1.102-3.824c0.6-1.351,1.332-2.685,2.201-3.998
				s1.854-2.539,2.955-3.678c1.102-1.14,2.211-2.115,3.33-2.927c1.508-1.043,2.906-1.651,4.201-1.825
				c1.293-0.175,2.326,0.01,3.098,0.551c0.773,0.541,1.197,1.381,1.275,2.521c0.078,1.141-0.328,2.481-1.217,4.024
				c-0.578,0.929-1.283,1.826-2.115,2.695c-0.83,0.868-1.719,1.62-2.664,2.26c-0.947,0.638-1.912,1.119-2.896,1.446
				c-0.984,0.33-1.902,0.416-2.752,0.263c-0.115,0.192-0.23,0.453-0.348,0.781c-0.117,0.329-0.184,0.676-0.203,1.043
				c-0.02,0.366,0.01,0.726,0.086,1.071C541.997,176.748,542.169,177.001,542.44,177.155L542.44,177.155z M543.483,171.247
				c0.811-0.078,1.813-0.562,3.012-1.449c1.197-0.89,2.24-2.203,3.129-3.94c0.311-0.578,0.443-0.965,0.406-1.158
				c-0.039-0.193-0.184-0.24-0.436-0.146c-0.252,0.097-0.6,0.318-1.043,0.666c-0.443,0.349-0.898,0.772-1.361,1.274
				c-0.813,0.851-1.584,1.748-2.316,2.693C544.14,170.135,543.675,170.821,543.483,171.247z"/>
			<path id="path1555" fill="#8DB823" d="M571.292,179.297c-0.967-0.5-1.459-1.359-1.477-2.578
				c-0.021-1.215,0.211-2.549,0.693-3.996c0.482-1.449,1.08-2.887,1.797-4.316c0.715-1.428,1.303-2.606,1.768-3.532
				c-0.85,0.463-1.768,1.196-2.752,2.2c-0.986,1.007-1.99,2.154-3.014,3.447c-1.023,1.295-2.066,2.656-3.129,4.084
				c-1.063,1.43-2.115,2.801-3.156,4.113c-1.006,1.236-2.049,2.201-3.129,2.896c-1.082,0.695-2.066,0.85-2.955,0.463
				c-0.58-0.27-0.918-0.82-1.016-1.65c-0.096-0.83-0.02-1.824,0.232-2.984c0.252-1.157,0.627-2.412,1.129-3.766
				c0.502-1.352,1.053-2.646,1.652-3.883c0.598-1.234,1.195-2.354,1.795-3.359c0.598-1.004,1.131-1.758,1.594-2.26
				c0.5-0.502,1.063-0.695,1.68-0.578c0.617,0.115,1.168,0.387,1.65,0.811c0.482,0.425,0.82,0.918,1.014,1.478
				c0.195,0.56,0.117,1.015-0.23,1.361c-0.426,0.424-0.908,1.063-1.447,1.911c-0.541,0.851-1.072,1.738-1.594,2.664
				c-0.521,0.929-0.994,1.798-1.418,2.607c-0.426,0.811-0.717,1.41-0.869,1.797c0.578-0.656,1.332-1.594,2.26-2.811
				c0.926-1.219,1.949-2.512,3.07-3.883c1.119-1.371,2.289-2.732,3.504-4.084c1.217-1.352,2.424-2.5,3.621-3.447
				c1.197-0.945,2.336-1.582,3.418-1.912c1.082-0.326,2.047-0.164,2.896,0.492c0.617,0.463,0.889,1.18,0.813,2.145
				c-0.078,0.967-0.33,2.027-0.754,3.187c-0.426,1.159-0.928,2.327-1.506,3.506s-1.055,2.222-1.42,3.129
				c-0.367,0.908-0.551,1.603-0.551,2.086c0,0.481,0.367,0.599,1.104,0.347c0.73-0.25,1.93-0.937,3.592-2.058
				c1.66-1.119,3.939-2.838,6.836-5.155c0.27-0.193,0.559-0.231,0.869-0.115c0.309,0.115,0.549,0.317,0.723,0.606
				c0.174,0.291,0.252,0.63,0.232,1.015c-0.021,0.387-0.225,0.715-0.609,0.985c-0.463,0.347-1.109,0.869-1.939,1.563
				c-0.83,0.695-1.738,1.438-2.725,2.229c-0.982,0.793-2.037,1.584-3.156,2.375c-1.119,0.793-2.229,1.469-3.33,2.029
				s-2.145,0.938-3.131,1.129C572.942,179.781,572.064,179.686,571.292,179.297L571.292,179.297z M575.983,158.559
				c-0.695,0-1.391-0.098-2.084-0.291c-0.313-0.115-0.602-0.231-0.869-0.348c-0.271-0.115-0.563-0.27-0.869-0.463
				c-0.271-0.154-0.521-0.311-0.754-0.465c-0.232-0.152-0.482-0.309-0.752-0.463c-0.232-0.193-0.475-0.367-0.725-0.521
				c-0.254-0.152-0.492-0.289-0.725-0.404c-0.426-0.271-0.869-0.406-1.334-0.406c-0.502,0-0.984,0.136-1.449,0.406
				c-0.463,0.271-0.83,0.578-1.1,0.926c-0.115,0.117-0.289,0.252-0.521,0.406c-0.115,0.115-0.252,0.174-0.404,0.174
				c-0.35,0-0.367-0.326-0.059-0.983c0.23-0.617,0.695-1.332,1.391-2.144c0.309-0.387,0.656-0.744,1.043-1.072
				c0.387-0.327,0.791-0.627,1.217-0.897c0.811-0.579,1.68-0.812,2.607-0.694c0.578,0.115,1.273,0.463,2.086,1.041
				c0.385,0.231,0.771,0.465,1.158,0.694c0.387,0.231,0.791,0.445,1.217,0.638c0.811,0.426,1.736,0.676,2.779,0.754
				c0.502,0,0.986-0.096,1.449-0.289c0.232-0.076,0.436-0.184,0.609-0.318c0.172-0.135,0.355-0.279,0.549-0.436
				c0.154-0.152,0.299-0.289,0.436-0.404s0.262-0.25,0.377-0.406c0.115-0.152,0.232-0.279,0.35-0.377
				c0.115-0.096,0.23-0.184,0.346-0.261c0.193-0.192,0.406-0.29,0.637-0.29c0.232,0,0.291,0.232,0.176,0.695
				c-0.115,0.426-0.389,1.004-0.813,1.738c-0.193,0.346-0.424,0.686-0.695,1.014c-0.27,0.328-0.559,0.666-0.867,1.014
				c-0.656,0.695-1.354,1.275-2.088,1.738C577.528,158.326,576.757,158.559,575.983,158.559L575.983,158.559z"/>
			<path id="path1557" fill="#8DB823" d="M600.607,170.725c-0.117,0.811-0.445,1.814-0.986,3.012
				c-0.541,1.199-1.254,2.347-2.143,3.447c-0.891,1.102-1.961,2.021-3.215,2.752c-1.258,0.734-2.693,1.043-4.316,0.928
				c-0.695-0.039-1.391-0.241-2.086-0.608s-1.295-0.858-1.795-1.478c-0.502-0.617-0.891-1.342-1.16-2.172
				c-0.271-0.83-0.328-1.768-0.174-2.811c0.271-1.854,0.803-3.438,1.594-4.752c0.791-1.313,1.65-2.414,2.578-3.303
				c0.463-0.424,1.043-0.549,1.738-0.377c0.693,0.176,1.311,0.57,1.854,1.188c-1.006-1.353-1.477-2.606-1.42-3.767
				c0.059-1.158,0.416-2.104,1.072-2.84c0.656-0.731,1.498-1.205,2.52-1.418c1.023-0.213,2.029-0.059,3.016,0.463
				c0.982,0.521,1.822,1.47,2.52,2.841c0.695,1.37,1.023,3.254,0.984,5.647c0.58,0.193,1.188,0.31,1.824,0.348
				c0.639,0.039,1.275,0.021,1.912-0.059c0.639-0.076,1.246-0.184,1.824-0.318c0.58-0.135,1.082-0.262,1.506-0.377
				c0.35-0.116,0.629-0.059,0.84,0.175c0.215,0.231,0.35,0.521,0.406,0.868c0.061,0.349,0.039,0.695-0.057,1.043
				c-0.098,0.347-0.262,0.578-0.492,0.695c-1.662,0.732-3.236,1.121-4.723,1.158C602.739,171.051,601.532,170.956,600.607,170.725
				L600.607,170.725z M593.19,167.594c0.115,0.232,0.152,0.465,0.115,0.695c-0.039,0.23-0.232,0.502-0.578,0.813
				c-0.695,0.617-1.314,1.381-1.855,2.287c-0.541,0.908-0.936,1.768-1.188,2.578c-0.25,0.811-0.318,1.496-0.203,2.057
				c0.117,0.562,0.502,0.82,1.16,0.783c0.578-0.039,1.188-0.328,1.822-0.869c0.641-0.541,1.229-1.168,1.77-1.885
				c0.539-0.713,1.014-1.477,1.418-2.287c0.406-0.811,0.666-1.525,0.783-2.145c-0.502-0.154-1.082-0.426-1.738-0.811
				C594.038,168.426,593.538,168.022,593.19,167.594L593.19,167.594z M595.218,162.151c-0.193,0.115-0.301,0.338-0.318,0.666
				c-0.021,0.328,0.049,0.693,0.203,1.101c0.152,0.405,0.387,0.803,0.693,1.188c0.311,0.387,0.695,0.693,1.16,0.926
				c0.037-0.463,0.029-0.955-0.029-1.477s-0.164-0.984-0.318-1.391s-0.357-0.715-0.607-0.928
				C595.749,162.026,595.487,161.997,595.218,162.151L595.218,162.151z"/>
			<path id="path1559" fill="#8DB823" d="M619.376,161.049c-1.271,0.271-2.605,0.83-3.998,1.68c-1.389,0.851-2.605,1.875-3.648,3.07
				c-1.043,1.197-1.795,2.512-2.258,3.939c-0.467,1.43-0.406,2.84,0.174,4.229c0.27-0.191,0.762-0.473,1.477-0.84
				c0.713-0.367,1.525-0.791,2.434-1.273c0.906-0.481,1.873-0.977,2.896-1.479s1.988-0.984,2.896-1.449
				c0.906-0.463,1.697-0.857,2.375-1.188c0.676-0.328,1.131-0.551,1.359-0.666c0.426-0.193,0.783-0.184,1.072,0.029
				s0.492,0.502,0.607,0.868c0.115,0.367,0.115,0.763,0,1.188s-0.367,0.754-0.752,0.984c-0.578,0.348-1.43,0.803-2.551,1.36
				c-1.121,0.562-2.328,1.181-3.621,1.854c-1.293,0.676-2.559,1.353-3.795,2.027c-1.234,0.676-2.26,1.303-3.068,1.883
				c0.191,0.695,0.355,1.459,0.49,2.289c0.137,0.83,0.164,1.709,0.088,2.635c-0.078,0.929-0.301,1.875-0.666,2.84
				c-0.367,0.966-0.955,1.931-1.768,2.896c-1.469,1.738-2.936,2.992-4.402,3.766c-1.469,0.771-2.811,1.179-4.027,1.218
				c-1.215,0.038-2.238-0.253-3.07-0.869c-0.83-0.617-1.342-1.457-1.535-2.521c-0.191-1.063-0.01-2.309,0.551-3.735
				c0.561-1.429,1.65-2.955,3.271-4.578c0.889-0.849,1.865-1.699,2.926-2.55c1.064-0.848,2.193-1.68,3.391-2.489
				c-1.004-2.164-1.332-4.287-0.984-6.373s1.119-4.026,2.318-5.821c1.193-1.798,2.701-3.39,4.518-4.781
				c1.816-1.39,3.709-2.471,5.678-3.244c0.656-0.23,1.246-0.125,1.77,0.32c0.52,0.442,0.877,0.994,1.07,1.649
				c0.193,0.657,0.213,1.304,0.059,1.94C620.497,160.499,620.071,160.895,619.376,161.049z M607.036,179.878
				c-0.773,0.541-1.729,1.295-2.867,2.26c-1.139,0.966-2.076,1.97-2.811,3.013c-1.197,1.738-1.572,2.83-1.129,3.272
				c0.441,0.444,1.342,0.106,2.691-1.015c0.734-0.579,1.393-1.217,1.973-1.911c0.578-0.695,1.051-1.382,1.418-2.058
				c0.365-0.674,0.617-1.322,0.754-1.94C607.2,180.883,607.19,180.34,607.036,179.878L607.036,179.878z"/>
		</g>
	</g>
	<g id="g2122">
		<path id="path1565" fill="#5BBFCB" d="M44.138,119.35c0,0,18.787,21.754,37.244,29.664l-11.206,21.754L44.138,119.35z"/>

			<linearGradient id="path1586_1_" gradientUnits="userSpaceOnUse" x1="401.1348" y1="833.1799" x2="437.4394" y2="735.8177" gradientTransform="matrix(1 0 0 1 -353.0508 -662.9199)">
			<stop  offset="4.361347e-004" style="stop-color:#FFEC00"/>
			<stop  offset="0.307" style="stop-color:#FFEA00"/>
			<stop  offset="0.4173" style="stop-color:#FEE300"/>
			<stop  offset="0.496" style="stop-color:#FED800"/>
			<stop  offset="0.5592" style="stop-color:#FCC700"/>
			<stop  offset="0.5784" style="stop-color:#FCC000"/>
			<stop  offset="0.6963" style="stop-color:#FAB600"/>
			<stop  offset="0.8928" style="stop-color:#F59D00"/>
			<stop  offset="1" style="stop-color:#F18C00"/>
		</linearGradient>
		<path id="path1586" fill="url(#path1586_1_)" d="M16.781,65.59c0,0,24.39,61.67,66.249,79.469c0,0,38.233,18.457,58.668-37.244
			c0,0-18.457,44.633-54.383,30.896c0,0-13.931-1.603-35.429-40.167C51.886,98.543,37.847,62.695,16.781,65.59L16.781,65.59z"/>

			<linearGradient id="path1603_1_" gradientUnits="userSpaceOnUse" x1="369.502" y1="764.2776" x2="476.2911" y2="764.2776" gradientTransform="matrix(1 0 0 1 -353.0508 -662.9199)">
			<stop  offset="0.0721" style="stop-color:#5BBFCB"/>
			<stop  offset="0.3126" style="stop-color:#58BDCA"/>
			<stop  offset="0.4965" style="stop-color:#4EB7C8"/>
			<stop  offset="0.6616" style="stop-color:#3EADC4"/>
			<stop  offset="0.8156" style="stop-color:#279EBF"/>
			<stop  offset="0.9607" style="stop-color:#098CB8"/>
			<stop  offset="1" style="stop-color:#0086B6"/>
		</linearGradient>
		<path id="path1603" fill="url(#path1603_1_)" d="M86.985,138.71l36.256-72.754c0,0-16.15-3.955-28.345,14.173
			c0,0-17.798,35.734-20.435,46.542c0,0-16.15-17.208-27.027-44.564c0,0-7.581-24.461-30.982-16.515c0,0,20.105-2.601,30.323,24.755
			C46.775,90.345,62.76,129.212,86.985,138.71z"/>
		<g id="g2120">
			<g id="g2101">
				<polygon id="polygon1605" fill="#FCC000" points="153.249,74.575 153.246,74.574 153.297,74.33"/>
				<polygon id="polygon1607" fill="#FCC000" points="153.149,75.066 153.046,75.557 153.032,75.554 153.141,75.065"/>
				<polygon id="polygon1609" fill="#FCC000" points="152.941,76.048 152.833,76.538 152.807,76.532 152.92,76.043"/>
				<polygon id="polygon1611" fill="#FCC000" points="152.724,77.027 152.613,77.516 152.575,77.507 152.692,77.02"/>
				<polygon id="polygon1613" fill="#FCC000" points="152.5,78.005 152.385,78.494 152.336,78.482 152.457,77.994"/>
				<polygon id="polygon1615" fill="#FCC000" points="152.269,78.982 152.152,79.47 152.091,79.455 152.214,78.968"/>
				<polygon id="polygon1617" fill="#FCC000" points="152.033,79.957 151.912,80.445 151.84,80.426 151.966,79.941"/>
				<polygon id="polygon1619" fill="#FCC000" points="151.79,80.932 151.667,81.418 151.583,81.396 151.712,80.911"/>
				<polygon id="polygon1621" fill="#FCC000" points="151.542,81.905 151.416,82.39 151.321,82.365 151.452,81.881"/>
				<polygon id="polygon1623" fill="#FCC000" points="151.289,82.875 151.16,83.36 151.054,83.331 151.188,82.848"/>
				<polygon id="polygon1625" fill="#FCC000" points="151.03,83.846 150.899,84.33 150.781,84.298 150.918,83.815"/>
				<polygon id="polygon1627" fill="#FCC000" points="150.766,84.814 150.633,85.298 150.503,85.261 150.643,84.779"/>
				<polygon id="polygon1629" fill="#FCC000" points="150.497,85.781 150.361,86.264 150.22,86.224 150.362,85.742"/>
				<polygon id="polygon1631" fill="#FCC000" points="150.223,86.748 150.084,87.23 149.932,87.185 150.077,86.705"/>
				<polygon id="polygon1633" fill="#FCC000" points="149.944,87.713 149.802,88.195 149.639,88.146 149.786,87.666"/>
				<polygon id="polygon1635" fill="#FCC000" points="149.659,88.676 149.516,89.157 149.341,89.103 149.491,88.625"/>
				<polygon id="polygon1637" fill="#FCC000" points="149.37,89.637 149.224,90.117 149.038,90.06 149.19,89.581"/>
				<polygon id="polygon1639" fill="#FCC000" points="149.076,90.598 148.927,91.077 148.73,91.015 148.885,90.537"/>
				<polygon id="polygon1641" fill="#FCC000" points="148.776,91.557 148.624,92.036 148.417,91.968 148.574,91.491"/>
				<polygon id="polygon1643" fill="#FCC000" points="148.471,92.515 148.317,92.993 148.098,92.921 148.258,92.444"/>
				<polygon id="polygon1645" fill="#FCC000" points="148.161,93.471 148.004,93.948 147.774,93.871 147.937,93.396"/>
				<polygon id="polygon1647" fill="#FCC000" points="147.846,94.426 147.686,94.901 147.446,94.819 147.611,94.346"/>
				<polygon id="polygon1649" fill="#FCC000" points="147.526,95.377 147.364,95.852 147.112,95.765 147.28,95.292"/>
				<polygon id="polygon1651" fill="#FCC000" points="147.2,96.327 147.036,96.801 146.774,96.708 146.944,96.236"/>
				<polygon id="polygon1653" fill="#FCC000" points="146.87,97.276 146.703,97.749 146.43,97.651 146.603,97.179"/>
				<polygon id="polygon1655" fill="#FCC000" points="146.534,98.223 146.364,98.695 146.08,98.591 146.256,98.121"/>
				<polygon id="polygon1657" fill="#FCC000" points="146.192,99.168 146.019,99.639 145.725,99.53 145.903,99.06"/>
				<polygon id="polygon1659" fill="#FCC000" points="145.845,100.111 145.669,100.582 145.364,100.466 145.545,99.998"/>
				<polygon id="polygon1661" fill="#FCC000" points="145.492,101.053 145.313,101.523 144.998,101.401 145.182,100.933"/>
				<polygon id="polygon1663" fill="#FCC000" points="145.133,101.993 144.952,102.461 144.626,102.333 144.813,101.867"/>
				<polygon id="polygon1665" fill="#FCC000" points="144.769,102.93 144.584,103.398 144.249,103.263 144.438,102.798"/>
				<polygon id="polygon1667" fill="#FCC000" points="144.398,103.866 144.211,104.332 143.865,104.191 144.058,103.727"/>
				<polygon id="polygon1669" fill="#FCC000" points="144.022,104.799 143.832,105.266 143.476,105.117 143.671,104.654"/>
				<polygon id="polygon1671" fill="#FCC000" points="143.64,105.731 143.447,106.194 143.08,106.039 143.279,105.578"/>
				<polygon id="polygon1673" fill="#FCC000" points="143.252,106.658 143.055,107.122 142.679,106.96 142.881,106.499"/>
				<polygon id="polygon1675" fill="#FCC000" points="142.857,107.585 142.657,108.046 142.272,107.878 142.476,107.418"/>
				<polygon id="polygon1677" fill="#FCC000" points="142.453,108.508 142.249,108.967 141.862,108.794 142.068,108.335"/>
				<polygon id="polygon1679" fill="#FCC000" points="142.043,109.427 141.835,109.883 141.446,109.706 141.655,109.25"/>
				<polygon id="polygon1681" fill="#FCC000" points="141.626,110.341 141.416,110.796 141.024,110.614 141.236,110.16"/>
				<polygon id="polygon1683" fill="#FCC000" points="141.203,111.252 140.989,111.705 140.595,111.52 140.811,111.067"/>
				<polygon id="polygon1685" fill="#FCC000" points="140.773,112.16 140.556,112.612 140.16,112.42 140.379,111.969"/>
				<polygon id="polygon1687" fill="#FCC000" points="140.337,113.065 140.116,113.516 139.717,113.319 139.94,112.869"/>
				<polygon id="polygon1689" fill="#FCC000" points="139.893,113.966 139.669,114.415 139.268,114.214 139.494,113.766"/>
				<polygon id="polygon1691" fill="#FCC000" points="139.442,114.864 139.214,115.311 138.812,115.106 139.041,114.658"/>
				<polygon id="polygon1693" fill="#FCC000" points="138.984,115.759 138.753,116.204 138.348,115.992 138.581,115.548"/>
				<polygon id="polygon1695" fill="#FCC000" points="138.518,116.651 138.283,117.093 137.877,116.876 138.114,116.434"/>
				<polygon id="polygon1697" fill="#FCC000" points="138.045,117.538 137.806,117.979 137.398,117.754 137.639,117.315"/>
				<polygon id="polygon1699" fill="#FCC000" points="137.564,118.419 137.322,118.858 136.912,118.629 137.156,118.192"/>
				<polygon id="polygon1701" fill="#FCC000" points="137.076,119.297 136.829,119.735 136.417,119.501 136.666,119.065"/>
				<polygon id="polygon1703" fill="#FCC000" points="136.579,120.172 136.328,120.606 135.915,120.365 136.168,119.934"/>
				<polygon id="polygon1705" fill="#FCC000" points="136.074,121.042 135.819,121.473 135.405,121.227 135.661,120.795"/>
				<polygon id="polygon1707" fill="#FCC000" points="135.56,121.905 135.301,122.335 134.886,122.083 135.147,121.655"/>
				<polygon id="polygon1709" fill="#FCC000" points="135.038,122.764 134.774,123.192 134.358,122.932 134.624,122.506"/>
				<polygon id="polygon1711" fill="#FCC000" points="134.507,123.617 134.239,124.044 133.822,123.778 134.092,123.354"/>
				<polygon id="polygon1713" fill="#FCC000" points="133.966,124.467 133.692,124.891 133.275,124.617 133.55,124.198"/>
				<polygon id="polygon1715" fill="#FCC000" points="133.415,125.313 133.137,125.733 132.72,125.454 132.999,125.035"/>
				<polygon id="polygon1717" fill="#FCC000" points="132.855,126.151 132.572,126.567 132.154,126.281 132.439,125.867"/>
				<polygon id="polygon1719" fill="#FCC000" points="132.285,126.983 131.997,127.395 131.58,127.102 131.869,126.692"/>
				<polygon id="polygon1721" fill="#FCC000" points="131.705,127.809 131.413,128.217 130.995,127.917 131.29,127.508"/>
				<polygon id="polygon1723" fill="#FCC000" points="131.116,128.626 130.818,129.031 130.401,128.723 130.7,128.319"/>
				<polygon id="polygon1725" fill="#FCC000" points="130.515,129.436 130.212,129.837 129.796,129.522 130.101,129.122"/>
				<polygon id="polygon1727" fill="#FCC000" points="129.904,130.239 129.596,130.635 129.18,130.311 129.491,129.917"/>
				<polygon id="polygon1729" fill="#FCC000" points="129.283,131.033 128.969,131.424 128.555,131.092 128.87,130.701"/>
				<polygon id="polygon1731" fill="#FCC000" points="128.65,131.819 128.33,132.206 127.918,131.865 128.239,131.479"/>
				<polygon id="polygon1733" fill="#FCC000" points="128.006,132.594 127.681,132.977 127.27,132.628 127.597,132.247"/>
				<polygon id="polygon1735" fill="#FCC000" points="127.35,133.362 127.019,133.739 126.611,133.379 126.943,133.003"/>
				<polygon id="polygon1737" fill="#FCC000" points="126.683,134.117 126.346,134.49 125.94,134.122 126.278,133.751"/>
				<polygon id="polygon1739" fill="#FCC000" points="126.003,134.864 125.66,135.231 125.258,134.852 125.602,134.487"/>
				<polygon id="polygon1741" fill="#FCC000" points="125.311,135.598 124.962,135.958 124.563,135.571 124.914,135.212"/>
				<polygon id="polygon1743" fill="#FCC000" points="124.607,136.321 124.252,136.674 123.857,136.278 124.214,135.924"/>
				<polygon id="polygon1745" fill="#FCC000" points="123.89,137.03 123.529,137.378 123.138,136.971 123.501,136.624"/>
				<polygon id="polygon1747" fill="#FCC000" points="123.16,137.727 122.793,138.067 122.407,137.651 122.776,137.311"/>
				<polygon id="polygon1749" fill="#FCC000" points="122.418,138.408 122.044,138.742 121.663,138.315 122.039,137.983"/>
				<polygon id="polygon1751" fill="#FCC000" points="121.662,139.076 121.281,139.403 120.907,138.965 121.289,138.641"/>
				<polygon id="polygon1753" fill="#FCC000" points="120.893,139.729 120.505,140.047 120.137,139.6 120.526,139.281"/>
				<polygon id="polygon1755" fill="#FCC000" points="120.108,140.367 119.713,140.678 119.353,140.217 119.749,139.908"/>
				<polygon id="polygon1757" fill="#FCC000" points="119.31,140.989 118.908,141.29 118.555,140.819 118.958,140.518"/>
				<polygon id="polygon1759" fill="#FCC000" points="118.497,141.59 118.089,141.883 117.745,141.401 118.154,141.11"/>
				<polygon id="polygon1761" fill="#FCC000" points="117.672,142.174 117.256,142.458 116.921,141.963 117.338,141.684"/>
				<polygon id="polygon1763" fill="#FCC000" points="116.832,142.74 116.41,143.012 116.085,142.506 116.508,142.237"/>
				<polygon id="polygon1765" fill="#FCC000" points="115.979,143.283 115.55,143.545 115.236,143.03 115.665,142.768"/>
				<polygon id="polygon1767" fill="#FCC000" points="115.112,143.807 114.677,144.057 114.374,143.528 114.809,143.28"/>
				<polygon id="polygon1769" fill="#FCC000" points="114.231,144.307 113.79,144.545 113.499,144.004 113.941,143.768"/>
				<polygon id="polygon1771" fill="#FCC000" points="113.338,144.781 112.891,145.008 112.612,144.458 113.061,144.233"/>
				<polygon id="polygon1773" fill="#FCC000" points="112.432,145.235 111.978,145.448 111.714,144.885 112.168,144.672"/>
				<polygon id="polygon1775" fill="#FCC000" points="111.514,145.66 111.055,145.862 110.804,145.288 111.265,145.088"/>
				<polygon id="polygon1777" fill="#FCC000" points="110.584,146.061 110.119,146.249 109.884,145.665 110.35,145.479"/>
				<polygon id="polygon1779" fill="#FCC000" points="109.643,146.434 109.172,146.608 108.953,146.012 109.424,145.84"/>
				<polygon id="polygon1781" fill="#FCC000" points="108.691,146.778 108.216,146.94 108.012,146.335 108.488,146.174"/>
				<polygon id="polygon1783" fill="#FCC000" points="107.729,147.094 107.249,147.24 107.063,146.626 107.544,146.483"/>
				<polygon id="polygon1785" fill="#FCC000" points="106.758,147.381 106.274,147.514 106.106,146.889 106.59,146.76"/>
				<polygon id="polygon1787" fill="#FCC000" points="105.778,147.641 105.291,147.756 105.141,147.124 105.629,147.008"/>
				<polygon id="polygon1789" fill="#FCC000" points="104.791,147.867 104.3,147.969 104.169,147.326 104.661,147.229"/>
				<polygon id="polygon1791" fill="#FCC000" points="103.798,148.065 103.304,148.151 103.192,147.501 103.686,147.417"/>
				<polygon id="polygon1793" fill="#FCC000" points="102.799,148.231 102.303,148.301 102.21,147.645 102.707,147.576"/>
				<polygon id="polygon1795" fill="#FCC000" points="101.795,148.365 101.297,148.42 101.224,147.758 101.723,147.706"/>
				<polygon id="polygon1797" fill="#FCC000" points="100.788,148.469 100.288,148.51 100.235,147.84 100.735,147.803"/>
				<polygon id="polygon1799" fill="#FCC000" points="99.777,148.544 99.277,148.569 99.244,147.895 99.745,147.872"/>
				<polygon id="polygon1801" fill="#FCC000" points="98.766,148.587 98.264,148.596 98.252,147.917 98.754,147.908"/>
				<polygon id="polygon1803" fill="#FCC000" points="97.753,148.6 97.251,148.594 97.259,147.911 97.761,147.919"/>
				<polygon id="polygon1805" fill="#FCC000" points="96.74,148.583 96.239,148.563 96.267,147.876 96.768,147.897"/>
				<polygon id="polygon1807" fill="#FCC000" points="95.728,148.536 95.228,148.503 95.276,147.813 95.776,147.848"/>
				<polygon id="polygon1809" fill="#FCC000" points="94.719,148.46 94.219,148.413 94.287,147.719 94.786,147.77"/>
				<polygon id="polygon1811" fill="#FCC000" points="93.711,148.358 93.213,148.295 93.3,147.602 93.798,147.665"/>
				<polygon id="polygon1813" fill="#FCC000" points="92.707,148.227 92.211,148.153 92.317,147.456 92.812,147.533"/>
				<polygon id="polygon1815" fill="#FCC000" points="91.706,148.069 91.212,147.983 91.337,147.285 91.831,147.374"/>
				<polygon id="polygon1817" fill="#FCC000" points="90.71,147.885 90.218,147.786 90.362,147.088 90.853,147.192"/>
				<polygon id="polygon1819" fill="#FCC000" points="89.719,147.678 89.23,147.567 89.391,146.867 89.88,146.983"/>
				<polygon id="polygon1821" fill="#FCC000" points="88.733,147.446 88.247,147.323 88.426,146.626 88.912,146.751"/>
				<polygon id="polygon1823" fill="#FCC000" points="87.754,147.192 87.27,147.057 87.466,146.358 87.949,146.495"/>
				<polygon id="polygon1825" fill="#FCC000" points="86.78,146.913 86.299,146.768 86.513,146.071 86.993,146.217"/>
				<polygon id="polygon1827" fill="#FCC000" points="85.813,146.614 85.335,146.458 85.565,145.76 86.042,145.92"/>
				<polygon id="polygon1829" fill="#FCC000" points="84.852,146.294 84.379,146.128 84.624,145.432 85.097,145.602"/>
				<polygon id="polygon1831" fill="#FCC000" points="83.899,145.954 83.428,145.778 83.689,145.085 84.159,145.262"/>
				<polygon id="polygon1833" fill="#FCC000" points="82.953,145.594 82.485,145.41 82.761,144.717 83.228,144.905"/>
				<polygon id="polygon1835" fill="#FCC000" points="82.014,145.217 81.55,145.024 81.841,144.333 82.304,144.528"/>
				<polygon id="polygon1837" fill="#FCC000" points="81.083,144.823 80.624,144.622 80.929,143.932 81.387,144.135"/>
				<polygon id="polygon1839" fill="#FCC000" points="80.161,144.413 79.705,144.201 80.024,143.516 80.479,143.727"/>
				<polygon id="polygon1841" fill="#FCC000" points="79.246,143.985 78.794,143.768 79.126,143.083 79.577,143.301"/>
				<polygon id="polygon1843" fill="#FCC000" points="78.338,143.544 77.89,143.317 78.235,142.633 78.683,142.862"/>
				<polygon id="polygon1845" fill="#FCC000" points="77.437,143.087 76.993,142.854 77.351,142.17 77.794,142.406"/>
				<polygon id="polygon1847" fill="#FCC000" points="76.544,142.614 76.103,142.376 76.473,141.696 76.914,141.936"/>
				<polygon id="polygon1849" fill="#FCC000" points="75.658,142.129 75.221,141.883 75.603,141.206 76.04,141.454"/>
				<polygon id="polygon1851" fill="#FCC000" points="74.78,141.631 74.345,141.379 74.739,140.704 75.173,140.958"/>
				<polygon id="polygon1853" fill="#FCC000" points="73.908,141.122 73.477,140.864 73.883,140.19 74.313,140.449"/>
				<polygon id="polygon1855" fill="#FCC000" points="73.044,140.6 72.616,140.335 73.033,139.663 73.459,139.928"/>
				<polygon id="polygon1857" fill="#FCC000" points="72.186,140.065 71.762,139.795 72.19,139.126 72.613,139.397"/>
				<polygon id="polygon1859" fill="#FCC000" points="71.335,139.522 70.915,139.247 71.353,138.579 71.773,138.856"/>
				<polygon id="polygon1861" fill="#FCC000" points="70.491,138.965 70.074,138.686 70.523,138.02 70.939,138.301"/>
				<polygon id="polygon1863" fill="#FCC000" points="69.654,138.401 69.241,138.115 69.699,137.451 70.112,137.739"/>
				<polygon id="polygon1865" fill="#FCC000" points="68.824,137.824 68.414,137.538 68.883,136.876 69.292,137.165"/>
				<polygon id="polygon1867" fill="#FCC000" points="68.003,137.242 67.596,136.949 68.074,136.29 68.48,136.585"/>
				<polygon id="polygon1869" fill="#FCC000" points="67.187,136.651 66.783,136.354 67.271,135.696 67.674,135.994"/>
				<polygon id="polygon1871" fill="#FCC000" points="66.378,136.051 65.977,135.749 66.474,135.092 66.874,135.397"/>
				<polygon id="polygon1873" fill="#FCC000" points="65.574,135.442 65.177,135.135 65.683,134.481 66.079,134.79"/>
				<polygon id="polygon1875" fill="#FCC000" points="64.777,134.824 64.382,134.516 64.897,133.862 65.291,134.174"/>
				<polygon id="polygon1877" fill="#FCC000" points="63.985,134.201 63.593,133.887 64.117,133.237 64.508,133.551"/>
				<polygon id="polygon1879" fill="#FCC000" points="63.2,133.569 62.812,133.251 63.341,132.604 63.73,132.92"/>
				<polygon id="polygon1881" fill="#FCC000" points="62.422,132.926 62.037,132.604 62.569,131.965 62.956,132.288"/>
				<polygon id="polygon1883" fill="#FCC000" points="61.65,132.278 61.268,131.951 61.803,131.321 62.187,131.647"/>
				<polygon id="polygon1885" fill="#FCC000" points="60.884,131.622 60.504,131.294 61.041,130.67 61.423,130.999"/>
				<polygon id="polygon1887" fill="#FCC000" points="60.123,130.96 59.746,130.628 60.286,130.012 60.664,130.342"/>
				<polygon id="polygon1889" fill="#FCC000" points="59.368,130.292 58.993,129.958 59.535,129.35 59.911,129.682"/>
				<polygon id="polygon1891" fill="#FCC000" points="58.617,129.617 58.245,129.28 58.789,128.678 59.162,129.016"/>
				<polygon id="polygon1893" fill="#FCC000" points="57.872,128.938 57.502,128.598 58.048,128.004 58.419,128.342"/>
				<polygon id="polygon1895" fill="#FCC000" points="57.132,128.253 56.765,127.908 57.312,127.323 57.68,127.665"/>
				<polygon id="polygon1897" fill="#FCC000" points="56.397,127.563 56.033,127.217 56.581,126.637 56.946,126.981"/>
				<polygon id="polygon1899" fill="#FCC000" points="55.669,126.869 55.307,126.522 55.856,125.948 56.219,126.295"/>
				<polygon id="polygon1901" fill="#FCC000" points="54.945,126.17 54.586,125.821 55.136,125.253 55.496,125.602"/>
				<polygon id="polygon1903" fill="#FCC000" points="54.226,125.465 53.869,125.114 54.419,124.553 54.778,124.905"/>
				<polygon id="polygon1905" fill="#FCC000" points="53.51,124.756 53.155,124.403 53.707,123.85 54.063,124.201"/>
				<polygon id="polygon1907" fill="#FCC000" points="52.8,124.044 52.447,123.686 52.999,123.139 53.353,123.495"/>
				<polygon id="polygon1909" fill="#FCC000" points="52.093,123.324 51.742,122.965 52.294,122.424 52.647,122.783"/>
				<polygon id="polygon1911" fill="#FCC000" points="51.391,122.604 51.042,122.24 51.594,121.706 51.945,122.067"/>
				<polygon id="polygon1913" fill="#FCC000" points="50.693,121.876 50.346,121.512 50.898,120.985 51.246,121.346"/>
				<polygon id="polygon1915" fill="#FCC000" points="49.998,121.145 49.653,120.78 50.206,120.256 50.552,120.622"/>
				<polygon id="polygon1917" fill="#FCC000" points="49.308,120.411 48.965,120.044 49.518,119.526 49.862,119.893"/>
				<path id="path1919" fill="#FCC000" d="M48.623,119.672l-0.347-0.383l0.573-0.486c0,0,0.078,0.088,0.156,0.176
					c0.086,0.092,0.171,0.185,0.171,0.185L48.623,119.672z"/>
				<polygon id="polygon1921" fill="#FCC000" points="47.952,118.899 47.634,118.512 48.21,118.038 48.53,118.422"/>
				<polygon id="polygon1923" fill="#FCC000" points="47.316,118.12 47.001,117.731 47.577,117.263 47.894,117.653"/>
				<polygon id="polygon1925" fill="#FCC000" points="46.686,117.336 46.374,116.944 46.949,116.485 47.263,116.875"/>
				<polygon id="polygon1927" fill="#FCC000" points="46.062,116.548 45.752,116.153 46.326,115.701 46.637,116.094"/>
				<polygon id="polygon1929" fill="#FCC000" points="45.442,115.756 45.135,115.36 45.706,114.913 46.016,115.309"/>
				<polygon id="polygon1931" fill="#FCC000" points="44.827,114.96 44.521,114.563 45.091,114.122 45.399,114.52"/>
				<polygon id="polygon1933" fill="#FCC000" points="44.216,114.162 43.912,113.763 44.48,113.329 44.786,113.727"/>
				<polygon id="polygon1935" fill="#FCC000" points="43.608,113.362 43.307,112.96 43.873,112.531 44.176,112.932"/>
				<polygon id="polygon1937" fill="#FCC000" points="43.006,112.557 42.705,112.155 43.269,111.733 43.571,112.134"/>
				<polygon id="polygon1939" fill="#FCC000" points="42.405,111.75 42.107,111.346 42.668,110.93 42.969,111.332"/>
				<polygon id="polygon1941" fill="#FCC000" points="41.81,110.942 41.513,110.536 42.072,110.125 42.37,110.53"/>
				<polygon id="polygon1943" fill="#FCC000" points="41.217,110.129 40.923,109.723 41.478,109.319 41.775,109.723"/>
				<polygon id="polygon1945" fill="#FCC000" points="40.628,109.315 40.335,108.906 40.888,108.507 41.183,108.913"/>
				<polygon id="polygon1947" fill="#FCC000" points="40.042,108.497 39.75,108.088 40.301,107.694 40.594,108.102"/>
				<polygon id="polygon1949" fill="#FCC000" points="39.459,107.678 39.17,107.268 39.718,106.879 40.009,107.287"/>
				<polygon id="polygon1951" fill="#FCC000" points="38.88,106.858 38.593,106.446 39.138,106.063 39.428,106.471"/>
				<polygon id="polygon1953" fill="#FCC000" points="38.305,106.033 38.018,105.62 38.561,105.242 38.849,105.653"/>
				<polygon id="polygon1955" fill="#FCC000" points="37.732,105.206 37.447,104.792 37.987,104.419 38.274,104.831"/>
				<polygon id="polygon1957" fill="#FCC000" points="37.163,104.377 36.879,103.962 37.416,103.594 37.701,104.007"/>
				<polygon id="polygon1959" fill="#FCC000" points="36.596,103.545 36.315,103.129 36.848,102.766 37.132,103.18"/>
				<polygon id="polygon1961" fill="#FCC000" points="36.034,102.712 35.755,102.295 36.285,101.937 36.566,102.352"/>
				<polygon id="polygon1963" fill="#FCC000" points="35.475,101.877 35.197,101.459 35.725,101.107 36.005,101.523"/>
				<polygon id="polygon1965" fill="#FCC000" points="34.92,101.04 34.643,100.621 35.167,100.273 35.446,100.691"/>
				<polygon id="polygon1967" fill="#FCC000" points="34.367,100.2 34.092,99.78 34.614,99.437 34.89,99.856"/>
				<polygon id="polygon1969" fill="#FCC000" points="33.817,99.358 33.544,98.937 34.062,98.599 34.338,99.019"/>
				<polygon id="polygon1971" fill="#FCC000" points="33.271,98.514 33,98.091 33.515,97.758 33.789,98.179"/>
				<polygon id="polygon1973" fill="#FCC000" points="32.728,97.667 32.458,97.243 32.97,96.915 33.242,97.337"/>
				<polygon id="polygon1975" fill="#FCC000" points="32.188,96.818 31.92,96.393 32.429,96.07 32.699,96.493"/>
				<polygon id="polygon1977" fill="#FCC000" points="31.652,95.966 31.385,95.54 31.891,95.222 32.159,95.647"/>
				<polygon id="polygon1979" fill="#FCC000" points="31.119,95.113 30.854,94.686 31.356,94.372 31.623,94.798"/>
				<polygon id="polygon1981" fill="#FCC000" points="30.589,94.257 30.326,93.83 30.825,93.521 31.09,93.947"/>
				<polygon id="polygon1983" fill="#FCC000" points="30.064,93.401 29.803,92.973 30.298,92.669 30.562,93.096"/>
				<polygon id="polygon1985" fill="#FCC000" points="29.542,92.543 29.283,92.113 29.775,91.814 30.037,92.242"/>
				<polygon id="polygon1987" fill="#FCC000" points="29.024,91.682 28.766,91.252 29.255,90.957 29.515,91.386"/>
				<polygon id="polygon1989" fill="#FCC000" points="28.508,90.819 28.252,90.387 28.738,90.098 28.996,90.528"/>
				<polygon id="polygon1991" fill="#FCC000" points="27.997,89.954 27.742,89.521 28.225,89.236 28.481,89.668"/>
				<polygon id="polygon1993" fill="#FCC000" points="27.488,89.086 27.236,88.652 27.715,88.372 27.969,88.805"/>
				<polygon id="polygon1995" fill="#FCC000" points="26.983,88.217 26.733,87.781 27.208,87.506 27.461,87.94"/>
				<polygon id="polygon1997" fill="#FCC000" points="26.482,87.344 26.233,86.908 26.705,86.637 26.956,87.072"/>
				<polygon id="polygon1999" fill="#FCC000" points="25.984,86.47 25.737,86.033 26.206,85.766 26.455,86.202"/>
				<polygon id="polygon2001" fill="#FCC000" points="25.49,85.594 25.245,85.155 25.71,84.893 25.958,85.331"/>
				<polygon id="polygon2003" fill="#FCC000" points="25,84.715 24.756,84.275 25.218,84.018 25.464,84.456"/>
				<polygon id="polygon2005" fill="#FCC000" points="24.513,83.834 24.272,83.393 24.729,83.141 24.973,83.58"/>
				<polygon id="polygon2007" fill="#FCC000" points="24.03,82.951 23.79,82.509 24.245,82.261 24.487,82.702"/>
				<polygon id="polygon2009" fill="#FCC000" points="23.551,82.066 23.313,81.623 23.764,81.379 24.004,81.821"/>
				<polygon id="polygon2011" fill="#FCC000" points="23.076,81.178 22.84,80.734 23.287,80.495 23.525,80.938"/>
				<polygon id="polygon2013" fill="#FCC000" points="22.604,80.289 22.37,79.844 22.814,79.609 23.05,80.053"/>
				<polygon id="polygon2015" fill="#FCC000" points="22.137,79.397 21.905,78.951 22.345,78.721 22.579,79.166"/>
				<polygon id="polygon2017" fill="#FCC000" points="21.674,78.503 21.443,78.056 21.88,77.83 22.112,78.276"/>
				<polygon id="polygon2019" fill="#FCC000" points="21.214,77.608 20.987,77.161 21.419,76.939 21.649,77.385"/>
				<polygon id="polygon2021" fill="#FCC000" points="20.76,76.712 20.535,76.264 20.964,76.047 21.191,76.494"/>
				<polygon id="polygon2023" fill="#FCC000" points="20.31,75.814 20.087,75.365 20.512,75.152 20.738,75.601"/>
				<polygon id="polygon2025" fill="#FCC000" points="19.864,74.914 19.643,74.464 20.065,74.255 20.288,74.705"/>
				<polygon id="polygon2027" fill="#FCC000" points="19.423,74.012 19.203,73.56 19.621,73.356 19.842,73.807"/>
				<polygon id="polygon2029" fill="#FCC000" points="18.985,73.107 18.768,72.654 19.182,72.454 19.401,72.906"/>
				<polygon id="polygon2031" fill="#FCC000" points="18.552,72.2 18.337,71.746 18.747,71.55 18.964,72.003"/>
				<polygon id="polygon2033" fill="#FCC000" points="18.122,71.29 17.91,70.835 18.316,70.644 18.531,71.098"/>
				<polygon id="polygon2035" fill="#FCC000" points="17.698,70.379 17.488,69.922 17.889,69.736 18.102,70.191"/>
				<polygon id="polygon2037" fill="#FCC000" points="17.278,69.465 17.07,69.007 17.468,68.825 17.679,69.281"/>
				<polygon id="polygon2039" fill="#FCC000" points="16.862,68.549 16.656,68.09 17.051,67.912 17.259,68.369"/>
				<polygon id="polygon2041" fill="#FCC000" points="16.451,67.63 16.248,67.171 16.638,66.997 16.844,67.455"/>
				<polygon id="polygon2043" fill="#FCC000" points="16.045,66.71 15.844,66.249 16.23,66.079 16.434,66.539"/>
				<polygon id="polygon2045" fill="#FCC000" points="15.643,65.787 15.447,65.324 15.825,65.16 16.028,65.62"/>
				<polygon id="polygon2047" fill="#FCC000" points="15.251,64.86 15.057,64.396 15.422,64.24 15.623,64.701"/>
				<polygon id="polygon2049" fill="#FCC000" points="14.864,63.931 14.672,63.466 15.024,63.318 15.223,63.78"/>
				<polygon id="polygon2051" fill="#FCC000" points="14.481,63 14.293,62.534 14.631,62.394 14.827,62.857"/>
				<polygon id="polygon2053" fill="#FCC000" points="14.104,62.067 13.918,61.6 14.243,61.467 14.436,61.931"/>
				<polygon id="polygon2055" fill="#FCC000" points="13.732,61.131 13.548,60.663 13.86,60.538 14.051,61.003"/>
				<polygon id="polygon2057" fill="#FCC000" points="13.366,60.194 13.184,59.725 13.482,59.607 13.67,60.073"/>
				<polygon id="polygon2059" fill="#FCC000" points="13.004,59.254 12.825,58.784 13.109,58.674 13.295,59.141"/>
				<polygon id="polygon2061" fill="#FCC000" points="12.648,58.313 12.472,57.842 12.742,57.739 12.925,58.207"/>
				<polygon id="polygon2063" fill="#FCC000" points="12.297,57.369 12.124,56.897 12.381,56.801 12.561,57.27"/>
				<polygon id="polygon2065" fill="#FCC000" points="11.952,56.424 11.782,55.951 12.024,55.861 12.202,56.332"/>
				<polygon id="polygon2067" fill="#FCC000" points="11.613,55.476 11.445,55.002 11.674,54.919 11.848,55.391"/>
				<polygon id="polygon2069" fill="#FCC000" points="11.279,54.527 11.114,54.051 11.329,53.975 11.501,54.448"/>
				<polygon id="polygon2071" fill="#FCC000" points="10.951,53.575 10.789,53.099 10.99,53.029 11.158,53.503"/>
				<polygon id="polygon2073" fill="#FCC000" points="10.629,52.621 10.47,52.144 10.656,52.081 10.822,52.555"/>
				<polygon id="polygon2075" fill="#FCC000" points="10.313,51.666 10.157,51.187 10.329,51.13 10.492,51.606"/>
				<polygon id="polygon2077" fill="#FCC000" points="10.003,50.708 9.85,50.229 10.008,50.177 10.168,50.654"/>
				<polygon id="polygon2079" fill="#FCC000" points="9.699,49.749 9.549,49.269 9.692,49.223 9.849,49.701"/>
				<polygon id="polygon2081" fill="#FCC000" points="9.401,48.787 9.255,48.306 9.383,48.266 9.537,48.745"/>
				<polygon id="polygon2083" fill="#FCC000" points="9.11,47.825 8.968,47.345 9.082,47.31 9.232,47.788"/>
				<polygon id="polygon2085" fill="#FCC000" points="8.826,46.863 8.687,46.381 8.787,46.351 8.934,46.831"/>
				<polygon id="polygon2087" fill="#FCC000" points="8.549,45.898 8.412,45.415 8.497,45.39 8.641,45.871"/>
				<polygon id="polygon2089" fill="#FCC000" points="8.278,44.931 8.144,44.446 8.215,44.426 8.356,44.908"/>
				<polygon id="polygon2091" fill="#FCC000" points="8.013,43.961 7.883,43.476 7.939,43.46 8.076,43.944"/>
				<polygon id="polygon2093" fill="#FCC000" points="7.755,42.989 7.629,42.503 7.67,42.492 7.804,42.977"/>
				<polygon id="polygon2095" fill="#FCC000" points="7.504,42.016 7.382,41.528 7.408,41.521 7.538,42.007"/>
				<polygon id="polygon2097" fill="#FCC000" points="7.261,41.04 7.141,40.552 7.153,40.549 7.279,41.035"/>
				<polygon id="polygon2099" fill="#FCC000" points="6.866,39.405 6.926,39.648 6.923,39.649"/>
			</g>

				<linearGradient id="path2118_1_" gradientUnits="userSpaceOnUse" x1="497.794" y1="740.9143" x2="511.3897" y2="740.9143" gradientTransform="matrix(1 0 0 1 -353.0508 -662.9199)">
				<stop  offset="4.361347e-004" style="stop-color:#FFEC00"/>
				<stop  offset="0.3477" style="stop-color:#FFEA00"/>
				<stop  offset="0.5429" style="stop-color:#FEE100"/>
				<stop  offset="0.7004" style="stop-color:#FCD400"/>
				<stop  offset="0.8377" style="stop-color:#F9C000"/>
				<stop  offset="0.9607" style="stop-color:#F5A700"/>
				<stop  offset="1" style="stop-color:#F49D00"/>
			</linearGradient>
			<path id="path2118" fill="url(#path2118_1_)" d="M152.556,71.484c-2.153,0.177-1.906,3.284-2,4.83l-5.812,2.547l0.386,1.17
				l5.215-0.236l-0.138,2.274l-2.146,0.521l0.087,1.21l1.949,0.081l-0.021,0.347c0.298,0.037,0.596,0.074,0.895,0.11
				c0.298,0.037,0.596,0.074,0.894,0.11l0.064-0.341l1.91,0.396l0.378-1.153l-1.955-1.027l0.418-2.24l5.001,1.496l0.659-1.041
				l-5.019-3.883C153.606,75.133,154.601,72.179,152.556,71.484L152.556,71.484z"/>
		</g>
	</g>
</g>
</svg>
